<svg width="275" height="252" viewBox="0 0 275 252" fill="none" xmlns="http://www.w3.org/2000/svg">
<path d="M187.675 226.06H170.453V226.229H187.675V226.06Z" fill="#EBEBEB"/>
<path d="M134.462 191.286H3.85567C2.83251 191.284 1.85187 190.877 1.12902 190.153C0.406168 189.428 0.000181536 188.447 0.000183105 187.424V3.82843C0.00908993 2.81114 0.419007 1.83844 1.1409 1.12162C1.86279 0.404798 2.83834 0.00174267 3.85567 0H134.462C135.486 0 136.469 0.406914 137.193 1.13123C137.917 1.85554 138.324 2.83792 138.324 3.86225V187.424C138.324 188.448 137.917 189.431 137.193 190.155C136.469 190.879 135.486 191.286 134.462 191.286ZM3.85567 0.135281C2.87736 0.137072 1.93973 0.52696 1.24859 1.21937C0.557453 1.91177 0.169282 2.85012 0.169283 3.82843V187.424C0.169282 188.402 0.557453 189.341 1.24859 190.033C1.93973 190.725 2.87736 191.115 3.85567 191.117H134.462C135.441 191.115 136.379 190.726 137.072 190.033C137.764 189.341 138.153 188.403 138.155 187.424V3.82843C138.153 2.84949 137.764 1.91117 137.072 1.21895C136.379 0.526741 135.441 0.137069 134.462 0.135281H3.85567Z" fill="#EBEBEB"/>
<path d="M106.703 162.789H61.7896L59.0637 131.336H103.977L106.703 162.789Z" fill="#E6E6E6"/>
<path d="M109.03 162.789H64.1165L61.3906 131.336H106.304L109.03 162.789Z" fill="#F0F0F0"/>
<path d="M70.2577 156.033L68.7561 138.088H100.161L101.663 156.033H70.2577Z" fill="white"/>
<path d="M67.4578 169.262H118.465V162.789H67.4578V169.262Z" fill="#F0F0F0"/>
<path d="M67.4578 162.789H26.4814V169.263H67.4578V162.789Z" fill="#E6E6E6"/>
<path d="M220.256 16.5102H61.7552V104.753H220.256V16.5102Z" fill="#E0E0E0"/>
<path d="M228.962 16.5102H62.554V104.753H228.962V16.5102Z" fill="#F5F5F5"/>
<path d="M226.243 102.035V19.2297L65.2729 19.2297V102.035L226.243 102.035Z" fill="white"/>
<path d="M130.451 102.035L160.842 19.2297H110.687L80.296 102.035H130.451Z" fill="#F5F5F5"/>
<path d="M178.725 102.035L209.116 19.2297H171.278L140.888 102.035H178.725Z" fill="#F5F5F5"/>
<path d="M55.9857 148.321V149.958H54.944L54.0782 162.789H41.3348L40.4758 149.958H39.4274V148.321H55.9857Z" fill="#E6E6E6"/>
<path d="M45.4339 133.805C45.6504 130.667 50.6693 124.891 62.743 127.515C71.4686 129.416 74.7153 124.891 74.7153 124.891C74.7153 124.891 73.9037 137.661 60.7815 141.496C48.3154 145.142 45.0484 139.338 45.4339 133.805Z" fill="#E6E6E6"/>
<path d="M48.1868 153.136C48.2548 153.137 48.3221 153.123 48.384 153.095C48.4459 153.067 48.501 153.026 48.5453 152.974C49.4179 151.939 48.7009 149.464 47.7133 146.034C46.4417 141.638 44.8589 136.159 46.1982 132.188C46.9406 130.091 47.8079 128.04 48.7956 126.047C50.6895 122.042 52.3264 118.606 50.9601 114.967C50.9388 114.909 50.9062 114.856 50.8642 114.811C50.8223 114.766 50.7717 114.729 50.7156 114.704C50.6595 114.678 50.5988 114.664 50.5371 114.662C50.4755 114.66 50.414 114.67 50.3564 114.692C50.2987 114.714 50.2459 114.747 50.2012 114.79C50.1564 114.832 50.1204 114.883 50.0954 114.939C50.0704 114.996 50.0568 115.056 50.0555 115.118C50.0541 115.18 50.065 115.241 50.0875 115.299C51.3118 118.539 49.8305 121.677 47.9501 125.654C46.9498 127.68 46.069 129.762 45.3121 131.891C43.8849 136.139 45.5083 141.773 46.8137 146.291C47.5848 148.997 48.383 151.702 47.8351 152.379C47.7916 152.426 47.7583 152.481 47.7373 152.541C47.7164 152.601 47.7081 152.665 47.7132 152.729C47.7183 152.793 47.7366 152.854 47.7669 152.911C47.7972 152.967 47.8388 153.016 47.8892 153.055C47.9756 153.117 48.0811 153.146 48.1868 153.136Z" fill="#E6E6E6"/>
<path d="M143.255 252C215.686 252 274.403 248.572 274.403 244.343C274.403 240.114 215.686 236.686 143.255 236.686C70.8244 236.686 12.1077 240.114 12.1077 244.343C12.1077 248.572 70.8244 252 143.255 252Z" fill="#F5F5F5"/>
<path d="M143.228 207.013H47.1792L41.9236 52.543H137.973L143.228 207.013Z" fill="#407BFF"/>
<path d="M148.023 202.217H51.9742L46.7118 47.7476H142.761L148.023 202.217Z" fill="#407BFF"/>
<path opacity="0.3" d="M148.023 202.217H51.9742L46.7118 47.7476H142.761L148.023 202.217Z" fill="white"/>
<path d="M115.843 111.311C126.127 100.85 125.689 83.7434 114.865 73.1031C104.041 62.4628 86.9301 62.318 76.646 72.7795C66.3618 83.241 66.7994 100.347 77.6232 110.988C88.4471 121.628 105.558 121.773 115.843 111.311Z" fill="#407BFF"/>
<path d="M118.546 92.0513C118.684 95.732 117.881 99.3872 116.212 102.671C114.411 106.209 111.66 109.176 108.267 111.238C104.874 113.301 100.973 114.377 97.0026 114.345C92.9388 114.324 88.9523 113.233 85.4428 111.184C81.9334 109.135 79.0246 106.199 77.0082 102.671C75.128 99.4376 74.0776 95.7893 73.9508 92.0513C73.8261 89.153 74.2919 86.2596 75.3199 83.5468C76.3479 80.8341 77.9168 78.3586 79.9311 76.2709C81.9454 74.1833 84.3631 72.5269 87.0374 71.4025C89.7116 70.278 92.5865 69.7091 95.4875 69.7301C101.464 69.7724 107.194 72.1152 111.488 76.2719C115.782 80.4286 118.31 86.0797 118.546 92.0513Z" fill="white"/>
<path opacity="0.6" d="M116.199 102.671C114.398 106.209 111.646 109.176 108.253 111.238C104.86 113.301 100.959 114.377 96.9888 114.346C92.925 114.324 88.9385 113.233 85.4291 111.184C81.9197 109.135 79.0108 106.199 76.9944 102.671C82.7148 98.7708 89.4837 96.6976 96.4071 96.7253C103.442 96.7405 110.32 98.8066 116.199 102.671Z" fill="#407BFF"/>
<path opacity="0.6" d="M103.193 91.4953C106.975 87.6485 106.814 81.3583 102.834 77.4458C98.8541 73.5332 92.5621 73.48 88.7805 77.3268C84.9989 81.1736 85.1598 87.4638 89.1398 91.3763C93.1198 95.2889 99.4119 95.3421 103.193 91.4953Z" fill="#407BFF"/>
<path d="M128.726 146.278H67.4578L67.0452 134.102H128.314L128.726 146.278Z" fill="white"/>
<path d="M129.47 168.038H68.1952L67.7826 155.863H129.058L129.47 168.038Z" fill="white"/>
<path d="M105.823 157.541L91.0575 159.57C90.9166 159.586 90.7805 159.631 90.6579 159.702C90.5352 159.773 90.4286 159.869 90.3448 159.983C90.2609 160.098 90.2016 160.228 90.1706 160.367C90.1396 160.505 90.1376 160.648 90.1646 160.787L92.1059 170.683C92.1694 170.974 92.3393 171.23 92.5821 171.401C92.825 171.573 93.1232 171.647 93.4181 171.61L108.184 169.581C108.325 169.563 108.46 169.516 108.582 169.444C108.704 169.372 108.809 169.275 108.893 169.161C108.976 169.046 109.034 168.915 109.065 168.777C109.095 168.639 109.097 168.495 109.07 168.356L107.136 158.461C107.072 158.171 106.902 157.915 106.659 157.745C106.416 157.574 106.118 157.502 105.823 157.541ZM101.582 167.565L98.8767 167.923L98.6129 164.731C98.3341 164.61 98.0884 164.424 97.8965 164.189C97.7046 163.954 97.5722 163.675 97.5103 163.378C97.4606 163.148 97.4598 162.909 97.508 162.679C97.5561 162.448 97.6522 162.23 97.7899 162.039C97.9276 161.848 98.1039 161.687 98.3074 161.568C98.5109 161.45 98.7371 161.375 98.9714 161.349C99.4518 161.287 99.9379 161.408 100.334 161.687C100.729 161.966 101.006 162.384 101.109 162.857C101.167 163.143 101.149 163.439 101.057 163.716C100.964 163.993 100.8 164.24 100.581 164.433L101.582 167.565Z" fill="#407BFF"/>
<path d="M104.362 157.006C104.101 157.039 103.837 156.974 103.622 156.822C103.406 156.671 103.256 156.444 103.199 156.187L103.009 155.22C102.739 153.9 101.999 152.723 100.927 151.907C99.8547 151.091 98.523 150.692 97.1787 150.783C96.5003 150.822 95.8383 151.006 95.2374 151.323C94.6366 151.64 94.111 152.083 93.6965 152.622C93.282 153.16 92.9882 153.781 92.8351 154.443C92.682 155.105 92.6731 155.792 92.8091 156.458L93.0256 157.574C93.0508 157.698 93.0499 157.825 93.023 157.949C92.996 158.072 92.9436 158.188 92.8691 158.29C92.7946 158.392 92.6997 158.477 92.5903 158.54C92.481 158.603 92.3597 158.643 92.2342 158.656C91.9727 158.693 91.707 158.628 91.491 158.477C91.2751 158.325 91.1249 158.096 91.0708 157.838L90.8882 156.898C90.7024 156.019 90.6963 155.112 90.8701 154.231C91.0438 153.349 91.394 152.513 91.8994 151.77C92.4049 151.028 93.0552 150.395 93.8113 149.911C94.5674 149.426 95.4138 149.099 96.2994 148.95C98.2196 148.627 100.19 149.057 101.802 150.149C103.415 151.241 104.544 152.911 104.957 154.814L105.174 155.924C105.199 156.049 105.198 156.178 105.169 156.303C105.141 156.427 105.087 156.544 105.01 156.647C104.934 156.749 104.836 156.834 104.725 156.895C104.613 156.957 104.489 156.995 104.362 157.006Z" fill="#407BFF"/>
<path d="M119.358 185.091H79.4707L79.2069 177.163H119.088L119.358 185.091Z" fill="#407BFF"/>
<path d="M100.114 140.191C100.126 140.481 100.079 140.769 99.976 141.04C99.8731 141.31 99.7163 141.557 99.5152 141.765C99.3141 141.973 99.0728 142.138 98.806 142.25C98.5392 142.362 98.2524 142.419 97.963 142.417C97.3666 142.412 96.7947 142.179 96.3655 141.764C95.9363 141.35 95.6825 140.787 95.6565 140.191C95.6446 139.902 95.6915 139.614 95.7944 139.343C95.8973 139.073 96.0541 138.826 96.2552 138.618C96.4563 138.41 96.6976 138.245 96.9644 138.133C97.2313 138.021 97.518 137.964 97.8074 137.966C98.4043 137.969 98.9771 138.202 99.4067 138.616C99.8363 139.031 100.09 139.595 100.114 140.191Z" fill="#263238"/>
<path d="M90.4961 140.191C90.509 140.481 90.4628 140.77 90.3602 141.041C90.2576 141.312 90.1009 141.559 89.8996 141.767C89.6982 141.975 89.4566 142.14 89.1893 142.252C88.9221 142.364 88.6348 142.42 88.3452 142.417C87.7494 142.412 87.1783 142.178 86.7502 141.764C86.3221 141.35 86.0697 140.787 86.0454 140.191C86.0335 139.902 86.0804 139.614 86.1833 139.343C86.2863 139.073 86.443 138.826 86.6441 138.618C86.8453 138.41 87.0865 138.245 87.3534 138.133C87.6202 138.021 87.907 137.964 88.1964 137.966C88.7926 137.969 89.3646 138.202 89.7931 138.617C90.2216 139.031 90.4735 139.596 90.4961 140.191Z" fill="#263238"/>
<path d="M80.9381 140.191C80.95 140.481 80.9031 140.769 80.8002 141.04C80.6973 141.31 80.5405 141.557 80.3394 141.765C80.1383 141.973 79.897 142.138 79.6302 142.25C79.3633 142.362 79.0766 142.419 78.7872 142.417C78.1909 142.414 77.6189 142.18 77.1904 141.766C76.7619 141.351 76.5101 140.787 76.4874 140.191C76.4755 139.902 76.5224 139.614 76.6253 139.343C76.7283 139.073 76.885 138.826 77.0862 138.618C77.2873 138.41 77.5286 138.245 77.7954 138.133C78.0622 138.021 78.349 137.964 78.6384 137.966C79.2346 137.969 79.8067 138.202 80.2351 138.617C80.6636 139.031 80.9155 139.596 80.9381 140.191Z" fill="#263238"/>
<path d="M109.699 140.191C109.711 140.48 109.664 140.769 109.561 141.039C109.458 141.31 109.301 141.556 109.1 141.764C108.899 141.973 108.658 142.138 108.391 142.25C108.124 142.362 107.837 142.418 107.548 142.416C106.952 142.413 106.379 142.18 105.951 141.765C105.523 141.351 105.271 140.787 105.248 140.191C105.238 139.903 105.286 139.615 105.391 139.346C105.495 139.077 105.653 138.832 105.854 138.626C106.056 138.42 106.298 138.257 106.564 138.147C106.831 138.037 107.117 137.982 107.406 137.986C107.997 137.99 108.565 138.222 108.991 138.632C109.418 139.042 109.671 139.6 109.699 140.191Z" fill="#263238"/>
<path d="M119.283 140.191C119.296 140.481 119.25 140.77 119.147 141.041C119.045 141.312 118.888 141.559 118.687 141.767C118.485 141.975 118.244 142.14 117.977 142.252C117.709 142.364 117.422 142.42 117.132 142.417C116.537 142.412 115.966 142.178 115.537 141.764C115.109 141.35 114.857 140.787 114.833 140.191C114.821 139.902 114.868 139.614 114.971 139.343C115.073 139.073 115.23 138.826 115.431 138.618C115.632 138.41 115.874 138.245 116.141 138.133C116.407 138.021 116.694 137.964 116.984 137.966C117.58 137.969 118.152 138.202 118.58 138.617C119.009 139.031 119.261 139.596 119.283 140.191Z" fill="#263238"/>
<path d="M200.012 80.6815C200.912 82.129 201.662 83.5088 202.433 84.9496C203.205 86.3903 203.901 87.8378 204.584 89.3191C205.978 92.3186 207.132 95.424 208.034 98.6061C208.156 99.0052 208.244 99.4313 208.345 99.8439L208.494 100.473L208.568 100.784L208.656 101.298C208.809 102.464 208.738 103.649 208.447 104.788C207.98 106.558 207.27 108.254 206.336 109.828C204.667 112.688 202.65 115.33 200.33 117.694L197.482 115.543C198.912 112.916 200.183 110.205 201.29 107.426C201.784 106.202 202.131 104.924 202.325 103.618C202.387 103.22 202.369 102.812 202.271 102.421L202.001 101.596C201.892 101.258 201.791 100.919 201.662 100.574C200.634 97.784 199.443 95.0557 198.098 92.4035C196.745 89.6979 195.291 86.9923 193.836 84.4085L200.012 80.6815Z" fill="#FF8B7B"/>
<path d="M198.206 114.602L195.094 116.246L198.666 120.426C198.666 120.426 200.898 118.918 200.999 116.618L198.206 114.602Z" fill="#FF8B7B"/>
<path d="M190.921 118.824L194.743 121.861L198.666 120.427L195.095 116.247L190.921 118.824Z" fill="#FF8B7B"/>
<path d="M177.853 58.5485C177.778 58.9273 177.515 59.1911 177.271 59.1438C177.028 59.0964 176.886 58.7447 176.96 58.3727C177.034 58.0006 177.298 57.6963 177.548 57.7774C177.799 57.8586 177.927 58.1697 177.853 58.5485Z" fill="#263238"/>
<path d="M177.548 59.1991C176.867 60.2585 176.043 61.219 175.1 62.0535C175.323 62.2844 175.593 62.4644 175.892 62.5811C176.191 62.6979 176.511 62.7486 176.831 62.7299L177.548 59.1991Z" fill="#FF5652"/>
<path d="M176.331 72.4698V68.0326L182.202 68.709C182.202 68.709 182.107 72.5239 178.82 73.6467L176.331 72.4698Z" fill="#FF8B7B"/>
<path d="M178.022 64.8398L182.155 66.0303L182.23 68.7427L176.358 68.0325L178.022 64.8398Z" fill="#FF8B7B"/>
<path opacity="0.2" d="M182.155 66.0303L178.022 64.8398L177.217 66.382C177.261 67.5972 177.641 68.7765 178.314 69.789C178.988 70.8014 179.928 71.6076 181.032 72.1179C181.742 71.1261 182.157 69.9536 182.229 68.7359L182.155 66.0303Z" fill="black"/>
<path d="M179.652 56.744C179.695 56.7428 179.738 56.7294 179.774 56.7053C179.81 56.6812 179.838 56.6474 179.856 56.6078C179.874 56.5682 179.88 56.5244 179.874 56.4815C179.867 56.4386 179.849 56.3982 179.821 56.3652C179.584 56.0969 179.285 55.8893 178.951 55.7599C178.617 55.6305 178.257 55.5829 177.9 55.6211C177.842 55.6311 177.79 55.6637 177.756 55.7119C177.721 55.7601 177.708 55.8199 177.718 55.8782C177.728 55.9369 177.76 55.9894 177.808 56.0247C177.856 56.0601 177.916 56.0754 177.975 56.0676C178.257 56.0399 178.542 56.0801 178.805 56.1848C179.069 56.2895 179.303 56.4557 179.49 56.6696C179.51 56.6922 179.536 56.7104 179.563 56.7232C179.591 56.736 179.621 56.743 179.652 56.744Z" fill="#263238"/>
<path d="M188.297 65.3944C187.62 68.8779 187.201 73.7006 189.65 76.0207C189.65 76.0207 188.703 79.5515 182.209 79.5515C175.1 79.5515 178.793 76.4536 178.793 76.4536C181.749 75.5337 181.722 72.1719 181.046 69.4663L188.297 65.3944Z" fill="#FF8B7B"/>
<path d="M190.968 78.3485C191.604 77.4557 191.577 74.6216 190.901 74.121C189.812 73.3161 185.138 73.1267 178.854 74.5742C179.53 77.3204 178.076 78.7544 178.076 78.7544L190.968 78.3485Z" fill="#407BFF"/>
<path d="M212.113 238.932C211.92 238.999 211.715 239.028 211.511 239.017C211.307 239.005 211.107 238.953 210.922 238.864C210.853 238.799 210.805 238.714 210.785 238.621C210.766 238.527 210.776 238.43 210.814 238.343C210.835 238.27 210.873 238.202 210.923 238.145C210.973 238.088 211.035 238.042 211.105 238.012C211.748 237.701 213.222 238.303 213.29 238.33C213.31 238.338 213.327 238.352 213.339 238.37C213.351 238.388 213.358 238.409 213.357 238.431C213.357 238.453 213.352 238.474 213.341 238.493C213.33 238.512 213.315 238.528 213.297 238.539C212.915 238.707 212.519 238.838 212.113 238.932ZM211.335 238.167C211.29 238.178 211.247 238.194 211.206 238.215C211.164 238.23 211.126 238.255 211.096 238.288C211.065 238.321 211.043 238.361 211.031 238.404C210.97 238.607 211.031 238.675 211.071 238.695C211.328 238.911 212.275 238.695 212.945 238.445C212.435 238.234 211.886 238.139 211.335 238.167Z" fill="#407BFF"/>
<path d="M213.269 238.547H213.215C212.674 238.391 211.524 237.573 211.511 237.038C211.51 236.953 211.539 236.871 211.592 236.804C211.645 236.738 211.719 236.692 211.802 236.673C211.882 236.643 211.968 236.631 212.053 236.638C212.138 236.645 212.221 236.671 212.295 236.714C212.931 237.038 213.337 238.351 213.351 238.411C213.36 238.428 213.365 238.447 213.365 238.466C213.365 238.485 213.36 238.503 213.351 238.52C213.34 238.53 213.327 238.538 213.313 238.543C213.299 238.548 213.284 238.549 213.269 238.547ZM211.917 236.862H211.862C211.727 236.91 211.727 236.977 211.727 237.011C211.727 237.329 212.498 237.972 213.08 238.229C212.938 237.85 212.627 237.099 212.214 236.876C212.123 236.834 212.018 236.829 211.923 236.862H211.917Z" fill="#407BFF"/>
<path d="M176.98 239.73C176.372 239.73 175.783 239.642 175.587 239.371C175.536 239.299 175.508 239.213 175.508 239.125C175.508 239.036 175.536 238.95 175.587 238.878C175.626 238.812 175.677 238.754 175.739 238.709C175.801 238.663 175.871 238.631 175.946 238.614C176.737 238.397 178.401 239.344 178.469 239.385C178.489 239.395 178.506 239.412 178.516 239.433C178.526 239.454 178.528 239.477 178.523 239.5C178.52 239.523 178.51 239.545 178.494 239.562C178.479 239.579 178.458 239.59 178.435 239.595C177.955 239.683 177.468 239.728 176.98 239.73ZM176.23 238.803C176.158 238.792 176.085 238.792 176.013 238.803C175.967 238.813 175.924 238.831 175.886 238.858C175.847 238.885 175.815 238.919 175.79 238.959C175.709 239.101 175.743 239.168 175.79 239.209C176.013 239.52 177.21 239.527 178.097 239.398C177.518 239.082 176.884 238.88 176.23 238.803Z" fill="#407BFF"/>
<path d="M178.428 239.594H178.381C177.806 239.337 176.669 238.309 176.757 237.768C176.757 237.64 176.866 237.484 177.177 237.457C177.288 237.444 177.401 237.454 177.508 237.487C177.615 237.519 177.714 237.574 177.799 237.646C178.232 238.165 178.493 238.806 178.543 239.479C178.543 239.499 178.539 239.518 178.53 239.535C178.522 239.553 178.51 239.568 178.496 239.581C178.475 239.592 178.451 239.596 178.428 239.594ZM177.265 237.667H177.197C176.994 237.667 176.981 237.761 176.981 237.788C176.926 238.113 177.698 238.925 178.286 239.277C178.234 238.734 178.014 238.221 177.657 237.809C177.546 237.714 177.404 237.664 177.258 237.667H177.265Z" fill="#407BFF"/>
<path d="M183.65 239.486H178.895L178.421 228.467H183.176L183.65 239.486Z" fill="#FF8B7B"/>
<path d="M218.572 237.281L213.926 238.289L209.252 228.028L213.905 227.02L218.572 237.281Z" fill="#FF8B7B"/>
<path d="M213.472 237.823L218.701 236.693C218.792 236.674 218.887 236.686 218.971 236.728C219.055 236.77 219.121 236.839 219.161 236.923L220.974 240.86C221.022 240.955 221.047 241.061 221.046 241.168C221.046 241.274 221.021 241.38 220.972 241.475C220.923 241.57 220.852 241.652 220.766 241.714C220.679 241.777 220.579 241.818 220.473 241.834C218.647 242.193 217.734 242.28 215.441 242.774C214.027 243.085 210.834 243.863 208.879 244.283C206.925 244.702 206.255 242.828 207.019 242.483C210.435 240.921 211.856 239.548 212.782 238.269C212.95 238.041 213.195 237.882 213.472 237.823Z" fill="#263238"/>
<path d="M178.928 238.931H184.123C184.217 238.932 184.309 238.964 184.382 239.023C184.456 239.082 184.508 239.164 184.529 239.256L185.469 243.484C185.497 243.586 185.5 243.693 185.479 243.797C185.457 243.9 185.412 243.998 185.346 244.08C185.28 244.163 185.196 244.23 185.1 244.274C185.004 244.318 184.899 244.34 184.793 244.336C182.919 244.302 180.214 244.194 177.86 244.194C175.1 244.194 172.726 244.343 169.493 244.343C167.538 244.343 166.997 242.368 167.815 242.185C171.535 241.373 174.579 241.285 177.792 239.304C178.129 239.078 178.523 238.949 178.928 238.931Z" fill="#263238"/>
<path d="M198.159 77.1103C202.616 78.1316 206.275 89.5155 206.275 89.5155L197.367 96.3268C195.055 93.8546 193.423 90.8249 192.632 87.5336C191.056 81.5678 193.6 76.0551 198.159 77.1103Z" fill="#407BFF"/>
<path opacity="0.4" d="M198.159 77.1103C202.616 78.1316 206.275 89.5155 206.275 89.5155L197.367 96.3268C195.055 93.8546 193.423 90.8249 192.632 87.5336C191.056 81.5678 193.6 76.0551 198.159 77.1103Z" fill="black"/>
<path d="M174.708 90.6859C173.599 91.8831 172.49 92.9518 171.326 94.0679C170.751 94.609 170.169 95.1501 169.574 95.6709L168.675 96.4623L168.451 96.6585L168.066 96.9696C167.669 97.2866 167.23 97.5462 166.76 97.7407C166.238 97.9623 165.677 98.0773 165.11 98.0789C164.625 98.081 164.144 97.9962 163.69 97.8287C163.185 97.6366 162.725 97.3443 162.337 96.9696C161.841 96.4853 161.478 95.8822 161.282 95.2177C161.179 94.8902 161.113 94.5521 161.085 94.2099C161.05 93.8094 161.05 93.4065 161.085 93.0059C161.119 92.6812 161.16 92.3972 161.214 92.1334C161.399 91.2111 161.661 90.306 161.999 89.4278C162.303 88.593 162.653 87.7755 163.047 86.9792C163.48 86.1201 163.892 85.4911 164.305 84.7741C165.981 82.0288 167.893 79.435 170.021 77.0226C172.127 74.6243 174.447 72.4236 176.954 70.4479L179.443 73.0115C177.698 75.3518 175.98 77.8613 174.39 80.3302C172.808 82.785 171.363 85.3254 170.061 87.9397C169.77 88.5755 169.385 89.2925 169.202 89.8065C168.96 90.4037 168.75 91.0133 168.573 91.6328C168.403 92.1907 168.274 92.7604 168.188 93.3374C168.183 93.4275 168.183 93.5178 168.188 93.6079C168.188 93.662 168.188 93.6891 168.188 93.547C168.176 93.3952 168.147 93.2453 168.1 93.1006C167.953 92.6211 167.685 92.1876 167.322 91.8425C166.998 91.5453 166.619 91.3154 166.206 91.1661C165.843 91.0285 165.458 90.9575 165.069 90.9564C164.696 90.9519 164.326 91.0232 163.98 91.1661C163.864 91.2138 163.751 91.2703 163.642 91.3352L163.899 91.0985L164.718 90.3544L166.334 88.8393C167.403 87.8314 168.478 86.756 169.493 85.7549L174.708 90.6859Z" fill="#FF8B7B"/>
<path opacity="0.2" d="M194.337 85.4704C196.759 87.8649 197.55 92.2344 197.719 96.0223L197.327 96.3267C195.014 93.8545 193.383 90.8247 192.592 87.5335C192.504 87.1817 192.423 86.857 192.362 86.4715L194.337 85.4704Z" fill="black"/>
<path d="M169.98 81.8448C169.006 86.9854 168.397 97.5441 171.218 118.445H196.691C196.867 114.542 194.411 95.481 198.179 77.0762C195.364 76.5356 192.517 76.1764 189.656 76.0007C186.052 75.794 182.438 75.794 178.834 76.0007C177.643 76.1089 176.467 76.2848 175.452 76.4674C174.103 76.7041 172.857 77.345 171.88 78.3052C170.903 79.2655 170.24 80.4998 169.98 81.8448Z" fill="#407BFF"/>
<path opacity="0.4" d="M169.98 81.8448C169.006 86.9854 168.397 97.5441 171.218 118.445H196.691C196.867 114.542 194.411 95.481 198.179 77.0762C195.364 76.5356 192.517 76.1764 189.656 76.0007C186.052 75.794 182.438 75.794 178.834 76.0007C177.643 76.1089 176.467 76.2848 175.452 76.4674C174.103 76.7041 172.857 77.345 171.88 78.3052C170.903 79.2655 170.24 80.4998 169.98 81.8448Z" fill="black"/>
<path opacity="0.2" d="M173.876 89.4684L169.276 88.3659C169.134 91.1527 169.12 94.6023 169.323 98.8704C171.441 96.4624 174.146 92.7016 173.876 89.4684Z" fill="black"/>
<path opacity="0.2" d="M178.421 228.467L178.665 234.149H183.427L183.183 228.467H178.421Z" fill="black"/>
<path opacity="0.2" d="M213.905 227.02L209.252 228.028L211.66 233.317L216.313 232.309L213.905 227.02Z" fill="black"/>
<path d="M190.556 60.3085C189.338 64.8674 188.851 67.6001 186.037 69.494C181.81 72.3755 176.534 69.0746 176.399 64.2587C176.25 59.9094 178.272 53.1792 183.163 52.2593C184.237 52.0576 185.346 52.1329 186.383 52.4781C187.421 52.8232 188.353 53.4269 189.093 54.2322C189.833 55.0375 190.355 56.0179 190.611 57.081C190.867 58.1441 190.848 59.2548 190.556 60.3085Z" fill="#FF8B7B"/>
<path d="M179.882 60.4778C179.652 59.8691 178.604 55.1545 179.591 53.9302C180.579 52.706 191.841 53.592 193.505 55.2289C196.271 57.9345 194.35 60.3696 191.327 63.5013C189.054 65.8552 188.966 68.5067 187.816 68.9125C185.787 69.5889 182.689 68.9531 182.067 66.8089C181.445 64.6647 179.882 60.4778 179.882 60.4778Z" fill="#263238"/>
<path d="M192.139 49.8649C188.161 48.1739 180.701 50.0475 176.669 49.0735C176.618 50.5725 177.111 52.0394 178.057 53.2032C179.003 54.367 180.339 55.149 181.817 55.4046C185.161 56.0419 188.559 56.3568 191.963 56.3448C196.387 56.1419 195.521 51.3056 192.139 49.8649Z" fill="#263238"/>
<path d="M192.761 55.3703C194.214 55.5133 195.677 55.2338 196.975 54.5654C197.719 56.3647 193.627 56.8584 192.761 55.3703Z" fill="#263238"/>
<path d="M182.047 60.6662C181.955 61.8392 181.48 62.9494 180.694 63.825C179.652 64.9681 178.57 64.2511 178.387 62.8645C178.225 61.6064 178.563 59.4825 179.835 58.8737C181.106 58.265 182.134 59.2525 182.047 60.6662Z" fill="#FF8B7B"/>
<path d="M180.248 118.465C180.248 118.465 185.659 154.821 188.615 168.444C191.855 183.359 209.265 232.702 209.265 232.702L217.781 230.856C217.781 230.856 205.606 190.637 202.9 169.783C200.804 153.766 196.684 118.451 196.684 118.451L180.248 118.465Z" fill="#407BFF"/>
<path d="M207.222 229.868C207.189 229.868 208.812 232.952 208.812 232.952L218.39 230.876L217.585 227.994L207.222 229.868Z" fill="#263238"/>
<path opacity="0.3" d="M183.663 131.418C189.906 132.643 189.244 155.924 188.493 167.904C186.694 159.435 184.056 143.147 182.256 131.588C182.692 131.372 183.189 131.313 183.663 131.418Z" fill="black"/>
<path d="M171.217 118.465C171.217 118.465 170.541 154.037 171.082 168.519C171.623 183.61 176.892 233.021 176.892 233.021H184.955C184.955 233.021 185.246 184.489 185.632 169.669C186.024 153.517 187.972 118.438 187.972 118.438L171.217 118.465Z" fill="#407BFF"/>
<path d="M175.343 229.841C175.303 229.841 175.797 233.182 175.797 233.182H185.598L185.868 230.2L175.343 229.841Z" fill="#263238"/>
<path d="M179.95 83.4276C182.23 89.5761 168.83 96.8203 168.83 96.8203L163.026 89.3799C163.026 89.3799 166.929 81.6554 171.664 78.1787C177.515 73.8903 178.212 78.7469 179.95 83.4276Z" fill="#407BFF"/>
<path opacity="0.4" d="M179.95 83.4276C182.23 89.5761 168.83 96.8203 168.83 96.8203L163.026 89.3799C163.026 89.3799 166.929 81.6554 171.664 78.1787C177.515 73.8903 178.212 78.7469 179.95 83.4276Z" fill="black"/>
<path d="M232.452 36.7485C245.934 36.7485 256.864 29.7833 256.864 21.1913C256.864 12.5993 245.934 5.63405 232.452 5.63405C218.97 5.63405 208.041 12.5993 208.041 21.1913C208.041 29.7833 218.97 36.7485 232.452 36.7485Z" fill="#407BFF"/>
<path d="M223.646 29.0252C222.037 29.02 220.483 28.4483 219.254 27.4104C218.026 26.3725 217.202 24.9349 216.929 23.3502C216.66 21.6337 217.047 19.8788 218.013 18.4348C218.98 16.9909 220.454 15.9638 222.144 15.5581C223.53 15.2386 224.982 15.3617 226.295 15.9101C227.608 16.4586 228.715 17.4046 229.463 18.6154L245.135 15.3822C245.737 15.2503 246.367 15.3505 246.899 15.6627C247.43 15.9749 247.825 16.4762 248.003 17.0664C248.085 17.3768 248.103 17.7005 248.055 18.018C248.008 18.3355 247.896 18.6399 247.727 18.9128C247.558 19.1857 247.335 19.4212 247.072 19.605C246.809 19.7888 246.511 19.917 246.197 19.9817L245.791 20.0629C245.731 20.0737 245.674 20.0982 245.624 20.1346C245.575 20.171 245.535 20.2182 245.507 20.2726C245.482 20.3278 245.469 20.3878 245.469 20.4484C245.469 20.5091 245.482 20.5691 245.507 20.6243L245.784 21.3413C245.877 21.5737 245.886 21.8312 245.809 22.0695C245.733 22.3078 245.576 22.5119 245.365 22.6467C245.199 22.7495 245.058 22.8888 244.954 23.054C244.849 23.2193 244.784 23.4062 244.763 23.6005C244.743 23.8235 244.653 24.0344 244.506 24.2033C244.359 24.3721 244.162 24.4902 243.944 24.5407L243.626 24.6083C243.406 24.649 243.178 24.6185 242.977 24.5212C242.775 24.424 242.609 24.2649 242.504 24.0672C242.363 23.8313 242.153 23.645 241.901 23.5345C241.65 23.4239 241.371 23.3945 241.102 23.4503C240.833 23.5061 240.588 23.6445 240.402 23.846C240.215 24.0475 240.097 24.3022 240.062 24.5745C240.043 24.796 239.954 25.0059 239.808 25.1737C239.662 25.3415 239.467 25.4585 239.25 25.5079L238.932 25.5756C238.712 25.6152 238.485 25.5842 238.283 25.4871C238.081 25.3899 237.916 25.2315 237.809 25.0344C237.708 24.8667 237.572 24.7229 237.409 24.6132C237.247 24.5034 237.063 24.4302 236.869 24.3986C236.609 24.3673 236.369 24.2422 236.195 24.0466C236.021 23.8511 235.924 23.5986 235.922 23.3367V22.5656C235.919 22.5053 235.904 22.4462 235.876 22.3926C235.848 22.3389 235.809 22.2918 235.762 22.2546C235.714 22.2173 235.659 22.1908 235.601 22.1767C235.542 22.1627 235.481 22.1615 235.422 22.1733L230.423 23.2014C230.219 24.5862 229.594 25.8746 228.631 26.8913C227.669 27.9079 226.417 28.6034 225.046 28.8832C224.585 28.9774 224.116 29.025 223.646 29.0252ZM222.293 16.1736C220.759 16.532 219.417 17.4583 218.539 18.7661C217.66 20.0738 217.31 21.6659 217.558 23.2217C217.824 24.6691 218.599 25.9735 219.743 26.899C220.888 27.8244 222.325 28.3098 223.796 28.2673C225.267 28.2248 226.675 27.6572 227.764 26.6673C228.852 25.6773 229.551 24.3303 229.733 22.87V22.6265L235.246 21.5104C235.404 21.4721 235.569 21.4696 235.728 21.5029C235.887 21.5362 236.037 21.6046 236.166 21.703C236.296 21.8015 236.402 21.9275 236.477 22.0721C236.552 22.2166 236.593 22.3759 236.599 22.5385V23.3096C236.6 23.4014 236.633 23.4899 236.692 23.5601C236.752 23.6304 236.833 23.6781 236.923 23.6952C237.219 23.7375 237.501 23.8466 237.748 24.0142C237.996 24.1818 238.202 24.4035 238.35 24.6624C238.386 24.7354 238.444 24.7955 238.516 24.8342C238.587 24.873 238.669 24.8886 238.75 24.8789L239.061 24.8112C239.14 24.7909 239.21 24.7458 239.261 24.6824C239.312 24.619 239.342 24.5409 239.345 24.4595C239.387 24.0384 239.563 23.6418 239.846 23.327C240.129 23.0121 240.504 22.7954 240.918 22.7081C241.332 22.6207 241.764 22.6673 242.149 22.8411C242.535 23.0149 242.856 23.3069 243.065 23.6749C243.1 23.7473 243.156 23.8071 243.226 23.8459C243.297 23.8847 243.378 23.9006 243.457 23.8913L243.782 23.8237C243.86 23.8022 243.928 23.7565 243.978 23.6932C244.028 23.63 244.056 23.5525 244.059 23.472C244.093 23.175 244.194 22.8896 244.354 22.6375C244.515 22.3855 244.731 22.1735 244.986 22.0177C245.061 21.9639 245.115 21.8868 245.141 21.7986C245.166 21.7104 245.162 21.6161 245.128 21.5307L244.851 20.8137C244.793 20.6659 244.769 20.5073 244.779 20.3491C244.79 20.1909 244.834 20.0369 244.91 19.8977C244.986 19.7586 245.092 19.6377 245.219 19.5436C245.347 19.4494 245.494 19.3843 245.649 19.3527L246.061 19.2647C246.285 19.2171 246.496 19.125 246.683 18.9938C246.87 18.8626 247.028 18.695 247.149 18.5012C247.27 18.3073 247.35 18.0911 247.385 17.8655C247.42 17.6399 247.409 17.4095 247.353 17.1882C247.221 16.7625 246.933 16.4025 246.547 16.1805C246.16 15.9584 245.704 15.8907 245.27 15.991L229.158 19.3391L229.036 19.1295C228.389 17.9771 227.384 17.0667 226.174 16.5358C224.963 16.005 223.613 15.8826 222.327 16.1871L222.293 16.1736ZM223.646 26.509C222.805 26.5184 221.98 26.2834 221.271 25.8326C220.433 25.2819 219.811 24.4574 219.512 23.4996C219.213 22.5417 219.256 21.5099 219.632 20.58C220.009 19.65 220.697 18.8796 221.578 18.3999C222.459 17.9203 223.48 17.7611 224.465 17.9496C225.451 18.1381 226.341 18.6626 226.983 19.4336C227.625 20.2046 227.979 21.1745 227.986 22.1778C227.994 23.1812 227.652 24.1559 227.021 24.9358C226.39 25.7158 225.508 26.2526 224.525 26.4549C224.237 26.507 223.945 26.5297 223.652 26.5225L223.646 26.509ZM223.646 18.5207C223.393 18.5221 223.142 18.547 222.895 18.5951C222.423 18.6955 221.977 18.8877 221.58 19.1607C221.183 19.4338 220.843 19.7824 220.581 20.1866C220.319 20.5907 220.139 21.0426 220.051 21.5164C219.964 21.9901 219.97 22.4765 220.071 22.9477C220.171 23.419 220.363 23.8658 220.636 24.2627C220.909 24.6597 221.258 24.999 221.662 25.2612C222.066 25.5234 222.518 25.7035 222.992 25.7911C223.466 25.8787 223.952 25.8721 224.423 25.7717C225.131 25.6245 225.779 25.2711 226.286 24.7561C226.792 24.2411 227.136 23.5876 227.272 22.8779C227.408 22.1683 227.33 21.4343 227.05 20.7684C226.769 20.1025 226.298 19.5346 225.695 19.1362C225.096 18.738 224.392 18.5283 223.673 18.5342L223.646 18.5207Z" fill="white"/>
<path opacity="0.6" d="M212.586 45.8735C217.017 45.8735 220.608 43.5841 220.608 40.7599C220.608 37.9358 217.017 35.6463 212.586 35.6463C208.156 35.6463 204.564 37.9358 204.564 40.7599C204.564 43.5841 208.156 45.8735 212.586 45.8735Z" fill="#407BFF"/>
<path opacity="0.3" d="M199.823 47.9697C201.642 47.9697 203.117 47.0309 203.117 45.8729C203.117 44.7148 201.642 43.776 199.823 43.776C198.003 43.776 196.529 44.7148 196.529 45.8729C196.529 47.0309 198.003 47.9697 199.823 47.9697Z" fill="#407BFF"/>
</svg>
