<svg width="339" height="252" viewBox="0 0 339 252" fill="none" xmlns="http://www.w3.org/2000/svg">
<path d="M304.763 232.68H282.327V232.849H304.763V232.68Z" fill="#EBEBEB"/>
<path d="M224.369 234.523H218.482V234.692H224.369V234.523Z" fill="#EBEBEB"/>
<path d="M281.65 226.394H268.651V226.563H281.65V226.394Z" fill="#EBEBEB"/>
<path d="M64.7935 227.532H35.5365V227.701H64.7935V227.532Z" fill="#EBEBEB"/>
<path d="M75.1171 227.532H70.8291V227.701H75.1171V227.532Z" fill="#EBEBEB"/>
<path d="M152.517 230.391H89.0579V230.56H152.517V230.391Z" fill="#EBEBEB"/>
<path d="M161.493 191.569H30.6863C29.6605 191.569 28.6766 191.161 27.9513 190.436C27.2259 189.711 26.8184 188.727 26.8184 187.701V3.83414C26.8273 2.81418 27.2387 1.83903 27.9632 1.12095C28.6876 0.402878 29.6663 1.43022e-05 30.6863 5.34086e-05H161.493C162 5.34086e-05 162.503 0.1001 162.973 0.294483C163.442 0.488866 163.868 0.773779 164.228 1.13295C164.587 1.49213 164.872 1.91853 165.066 2.38781C165.26 2.85709 165.36 3.36006 165.36 3.86801V187.701C165.36 188.209 165.26 188.712 165.066 189.181C164.872 189.65 164.587 190.077 164.228 190.436C163.868 190.795 163.442 191.08 162.973 191.275C162.503 191.469 162 191.569 161.493 191.569ZM30.6863 0.135534C29.7059 0.137325 28.7662 0.527573 28.073 1.22081C27.3797 1.91404 26.9895 2.85376 26.9877 3.83414V187.701C26.9895 188.681 27.3797 189.621 28.073 190.314C28.7662 191.008 29.7059 191.398 30.6863 191.4H161.493C162.473 191.398 163.413 191.008 164.106 190.314C164.799 189.621 165.189 188.681 165.191 187.701V3.83414C165.189 2.85376 164.799 1.91404 164.106 1.22081C163.413 0.527573 162.473 0.137325 161.493 0.135534H30.6863Z" fill="#EBEBEB"/>
<path d="M308.014 191.569H177.208C176.182 191.569 175.198 191.161 174.473 190.436C173.748 189.711 173.34 188.727 173.34 187.701V3.83414C173.349 2.81418 173.761 1.83903 174.485 1.12095C175.209 0.402878 176.188 1.43022e-05 177.208 5.34086e-05H308.014C309.04 5.34086e-05 310.024 0.407569 310.749 1.13295C311.475 1.85833 311.882 2.84216 311.882 3.86801V187.701C311.882 188.727 311.475 189.711 310.749 190.436C310.024 191.161 309.04 191.569 308.014 191.569ZM177.208 0.135534C176.228 0.137325 175.288 0.527573 174.595 1.22081C173.902 1.91404 173.511 2.85376 173.51 3.83414V187.701C173.511 188.681 173.902 189.621 174.595 190.314C175.288 191.008 176.228 191.398 177.208 191.4H308.014C308.995 191.398 309.934 191.008 310.628 190.314C311.321 189.621 311.711 188.681 311.713 187.701V3.83414C311.711 2.85376 311.321 1.91404 310.628 1.22081C309.934 0.527573 308.995 0.137325 308.014 0.135534H177.208Z" fill="#EBEBEB"/>
<path d="M338.701 221.781H0V221.95H338.701V221.781Z" fill="#EBEBEB"/>
<path d="M80.8342 175.955C80.2652 169.411 73.586 166.966 65.6672 167.657C57.7484 168.347 51.6044 171.917 52.1598 178.461L80.8342 175.955Z" fill="#F0F0F0"/>
<path d="M65.4099 164.669C69.0814 164.344 70.2533 161.241 69.9349 157.57C69.6165 153.898 67.9027 151.046 64.2447 151.365C60.5868 151.683 59.4013 154.792 59.7197 158.464C60.0381 162.135 61.7383 164.987 65.4099 164.669Z" fill="#F0F0F0"/>
<path d="M230.384 36.5794C230.448 37.3057 230.296 38.0346 229.946 38.6741C229.596 39.3136 229.064 39.8349 228.417 40.1719C227.771 40.509 227.039 40.6467 226.314 40.5676C225.589 40.4885 224.904 40.1962 224.345 39.7277C223.787 39.2592 223.38 38.6355 223.176 37.9356C222.972 37.2356 222.98 36.4909 223.199 35.7956C223.419 35.1003 223.839 34.4857 224.408 34.0295C224.977 33.5734 225.668 33.2962 226.394 33.2331C227.367 33.1485 228.334 33.4534 229.082 34.0808C229.83 34.7082 230.298 35.6069 230.384 36.5794Z" fill="#F5F5F5"/>
<path d="M250.754 34.7774C250.817 35.5022 250.663 36.2293 250.313 36.8669C249.963 37.5045 249.431 38.0238 248.786 38.3593C248.14 38.6948 247.41 38.8314 246.686 38.7517C245.963 38.6721 245.28 38.3798 244.723 37.9118C244.166 37.4439 243.76 36.8213 243.557 36.1228C243.354 35.4242 243.363 34.6811 243.582 33.9875C243.801 33.2938 244.221 32.6807 244.788 32.2256C245.356 31.7706 246.046 31.4941 246.771 31.4311C247.742 31.3484 248.707 31.6542 249.453 32.2814C250.2 32.9086 250.668 33.8062 250.754 34.7774Z" fill="#F5F5F5"/>
<path d="M271.13 32.9962C271.194 33.7225 271.042 34.4515 270.691 35.0909C270.341 35.7304 269.809 36.2517 269.163 36.5887C268.516 36.9258 267.784 37.0635 267.059 36.9844C266.335 36.9053 265.65 36.6131 265.091 36.1445C264.532 35.676 264.125 35.0523 263.921 34.3524C263.717 33.6525 263.725 32.9077 263.945 32.2124C264.164 31.5171 264.585 30.9025 265.154 30.4464C265.722 29.9902 266.414 29.713 267.14 29.6499C268.113 29.5653 269.079 29.8702 269.827 30.4976C270.575 31.125 271.044 32.0237 271.13 32.9962Z" fill="#F5F5F5"/>
<path d="M232.2 57.3211C232.264 58.0474 232.111 58.7764 231.761 59.4158C231.411 60.0553 230.879 60.5766 230.233 60.9136C229.586 61.2507 228.854 61.3884 228.129 61.3093C227.405 61.2302 226.719 60.938 226.161 60.4694C225.602 60.0009 225.195 59.3772 224.991 58.6773C224.787 57.9773 224.795 57.2326 225.015 56.5373C225.234 55.842 225.655 55.2274 226.223 54.7713C226.792 54.3151 227.483 54.0379 228.21 53.9748C229.182 53.8902 230.149 54.1951 230.897 54.8225C231.645 55.4499 232.114 56.3486 232.2 57.3211Z" fill="#F5F5F5"/>
<path d="M252.569 55.5467C252.632 56.2714 252.478 56.9986 252.128 57.6361C251.778 58.2737 251.246 58.7931 250.601 59.1286C249.955 59.464 249.225 59.6006 248.502 59.521C247.779 59.4413 247.095 59.149 246.538 58.6811C245.981 58.2131 245.576 57.5905 245.373 56.892C245.169 56.1934 245.178 55.4504 245.397 54.7567C245.616 54.063 246.036 53.4499 246.604 52.9949C247.171 52.5398 247.861 52.2633 248.586 52.2003C249.067 52.1585 249.552 52.2118 250.013 52.3574C250.473 52.5029 250.901 52.7377 251.271 53.0485C251.64 53.3592 251.945 53.7398 252.168 54.1684C252.391 54.5971 252.527 55.0654 252.569 55.5467Z" fill="#F5F5F5"/>
<path d="M272.945 53.7584C273.01 54.4846 272.857 55.2136 272.507 55.8531C272.157 56.4925 271.625 57.0138 270.978 57.3508C270.332 57.6879 269.6 57.8256 268.875 57.7465C268.15 57.6675 267.465 57.3752 266.907 56.9067C266.348 56.4382 265.941 55.8145 265.737 55.1145C265.533 54.4146 265.541 53.6698 265.76 52.9745C265.98 52.2792 266.4 51.6646 266.969 51.2085C267.538 50.7523 268.229 50.4751 268.955 50.412C269.928 50.3274 270.895 50.6323 271.643 51.2597C272.391 51.8872 272.859 52.7858 272.945 53.7584Z" fill="#F5F5F5"/>
<path d="M234.015 78.0903C234.078 78.8151 233.925 79.5422 233.574 80.1798C233.224 80.8173 232.692 81.3367 232.047 81.6722C231.401 82.0077 230.671 82.1442 229.948 82.0646C229.225 81.9849 228.541 81.6927 227.984 81.2247C227.427 80.7568 227.022 80.1342 226.819 79.4356C226.615 78.7371 226.624 77.994 226.843 77.3003C227.062 76.6066 227.482 75.9935 228.05 75.5385C228.617 75.0835 229.307 74.807 230.032 74.744C230.513 74.7012 230.999 74.7539 231.46 74.8991C231.921 75.0443 232.348 75.2791 232.718 75.59C233.088 75.9009 233.394 76.2818 233.616 76.7109C233.839 77.1399 233.974 77.6087 234.015 78.0903Z" fill="#F5F5F5"/>
<path d="M254.391 76.3018C254.455 77.0281 254.303 77.7571 253.953 78.3966C253.603 79.036 253.071 79.5573 252.424 79.8943C251.778 80.2314 251.046 80.3691 250.321 80.29C249.596 80.2109 248.911 79.9187 248.352 79.4502C247.794 78.9816 247.387 78.3579 247.183 77.658C246.979 76.9581 246.987 76.2133 247.206 75.518C247.425 74.8227 247.846 74.2081 248.415 73.752C248.984 73.2958 249.675 73.0186 250.401 72.9555C251.374 72.8709 252.34 73.1758 253.089 73.8032C253.837 74.4306 254.305 75.3293 254.391 76.3018Z" fill="#F5F5F5"/>
<path d="M274.761 74.514C274.825 75.2402 274.672 75.9692 274.322 76.6087C273.972 77.2482 273.44 77.7694 272.793 78.1065C272.147 78.4435 271.415 78.5812 270.69 78.5021C269.965 78.4231 269.28 78.1308 268.722 77.6623C268.163 77.1938 267.756 76.5701 267.552 75.8701C267.348 75.1702 267.356 74.4254 267.576 73.7301C267.795 73.0348 268.216 72.4202 268.784 71.9641C269.353 71.5079 270.044 71.2308 270.771 71.1676C271.743 71.083 272.71 71.3879 273.458 72.0154C274.206 72.6428 274.675 73.5414 274.761 74.514Z" fill="#F5F5F5"/>
<path d="M270.357 75.7194L228.508 79.3774L265.616 34.2896L227.607 37.6156C227.501 37.6258 227.394 37.6147 227.292 37.5829C227.19 37.5511 227.096 37.4993 227.014 37.4305C226.933 37.3617 226.866 37.2773 226.818 37.1823C226.769 37.0873 226.741 36.9836 226.733 36.8773C226.714 36.6644 226.781 36.4527 226.918 36.2889C227.055 36.125 227.252 36.0223 227.464 36.0034L269.321 32.3455L232.206 77.4333L270.229 74.1072C270.443 74.0902 270.655 74.1581 270.82 74.2962C270.985 74.4343 271.089 74.6316 271.109 74.8456C271.118 74.9524 271.105 75.0598 271.072 75.1616C271.038 75.2634 270.985 75.3576 270.915 75.4388C270.845 75.5201 270.76 75.5867 270.664 75.6348C270.569 75.683 270.464 75.7117 270.357 75.7194Z" fill="#E6E6E6"/>
<path d="M271.001 156.215C270.937 156.018 270.816 155.844 270.653 155.715C270.49 155.586 270.293 155.508 270.087 155.49C268.267 155.406 266.544 154.645 265.257 153.356C263.583 151.67 262.601 149.116 262.439 146.081C262.423 145.807 262.304 145.55 262.105 145.361C261.906 145.172 261.643 145.066 261.368 145.065C261.22 145.066 261.074 145.096 260.938 145.155C260.802 145.214 260.679 145.3 260.577 145.408C260.475 145.515 260.396 145.643 260.345 145.782C260.293 145.921 260.27 146.069 260.278 146.217C260.467 149.78 261.673 152.828 263.726 154.881C265.333 156.49 267.466 157.469 269.734 157.638H269.89C270.068 157.651 270.247 157.62 270.41 157.548C270.574 157.476 270.717 157.365 270.827 157.224C270.937 157.083 271.01 156.917 271.041 156.741C271.071 156.565 271.057 156.385 271.001 156.215Z" fill="#F0F0F0"/>
<path d="M268.833 169.215C259.858 168.429 253.382 162.312 251.336 152.76C251.304 152.617 251.3 152.469 251.327 152.324C251.353 152.179 251.408 152.041 251.489 151.918C251.57 151.796 251.675 151.691 251.798 151.609C251.921 151.528 252.059 151.473 252.203 151.446C252.477 151.398 252.76 151.456 252.992 151.61C253.224 151.764 253.388 152.001 253.45 152.273C255.285 160.855 261.043 166.356 269.03 167.054C277.782 167.819 287.177 162.061 288.864 147.551C288.893 147.268 289.033 147.008 289.252 146.827C289.471 146.646 289.753 146.558 290.036 146.583C290.18 146.594 290.319 146.635 290.447 146.702C290.575 146.768 290.688 146.86 290.779 146.971C290.871 147.082 290.939 147.211 290.98 147.349C291.021 147.487 291.034 147.632 291.018 147.775C289.399 161.458 280.403 170.224 268.833 169.215Z" fill="#F0F0F0"/>
<path d="M251.898 143.243C251.755 143.232 251.615 143.191 251.487 143.124C251.36 143.058 251.247 142.966 251.155 142.855C251.064 142.744 250.995 142.615 250.954 142.477C250.913 142.339 250.9 142.194 250.916 142.051C252.528 128.368 261.524 119.595 273.087 120.611C283.248 121.499 290.056 129.086 291.12 140.513C291.131 140.657 291.113 140.801 291.068 140.938C291.023 141.074 290.951 141.201 290.856 141.309C290.761 141.417 290.646 141.506 290.517 141.569C290.388 141.633 290.247 141.67 290.104 141.679C289.821 141.692 289.544 141.595 289.332 141.407C289.12 141.22 288.988 140.958 288.966 140.676C287.983 130.379 281.907 123.558 272.905 122.772C264.186 122.007 254.75 127.758 253.07 142.254C253.058 142.396 253.019 142.534 252.953 142.661C252.888 142.787 252.798 142.9 252.689 142.992C252.58 143.084 252.455 143.153 252.319 143.196C252.183 143.239 252.04 143.255 251.898 143.243Z" fill="#F0F0F0"/>
<path d="M269.274 163.409C267.665 163.28 266.088 162.887 264.606 162.244C264.468 162.184 264.344 162.095 264.242 161.984C264.14 161.873 264.062 161.742 264.013 161.6C263.964 161.457 263.945 161.306 263.957 161.156C263.97 161.005 264.013 160.859 264.085 160.727C264.212 160.494 264.421 160.316 264.671 160.229C264.921 160.141 265.195 160.15 265.44 160.253C266.852 160.859 268.362 161.208 269.897 161.282C276.529 161.662 283.533 156.96 284.224 145.607C284.644 138.61 282.246 132.96 277.775 130.257C277.544 130.117 277.373 129.896 277.297 129.636C277.22 129.377 277.243 129.098 277.362 128.855C277.429 128.721 277.524 128.602 277.639 128.505C277.754 128.409 277.888 128.337 278.032 128.294C278.176 128.252 278.328 128.239 278.477 128.258C278.626 128.276 278.77 128.325 278.9 128.401C284.082 131.531 286.859 137.885 286.385 145.736C285.708 156.683 278.893 163.972 269.768 163.45L269.274 163.409Z" fill="#F0F0F0"/>
<path d="M259.628 156.655C259.503 156.74 259.362 156.798 259.214 156.825C259.066 156.853 258.914 156.85 258.767 156.816C258.62 156.782 258.482 156.719 258.361 156.629C258.24 156.54 258.138 156.427 258.063 156.296C256.055 152.563 255.172 148.328 255.522 144.103C256.159 133.624 262.439 126.491 270.967 126.369C271.117 126.366 271.267 126.394 271.406 126.451C271.544 126.508 271.67 126.594 271.774 126.702C271.878 126.81 271.959 126.939 272.012 127.079C272.064 127.22 272.087 127.37 272.078 127.52C272.061 127.791 271.943 128.046 271.748 128.234C271.552 128.422 271.293 128.53 271.021 128.536C264.695 128.658 258.34 133.441 257.69 144.232C257.361 148.045 258.147 151.872 259.953 155.246C260.089 155.481 260.13 155.758 260.07 156.022C260.01 156.286 259.852 156.517 259.628 156.669V156.655Z" fill="#F0F0F0"/>
<path d="M274.436 155.802C274.333 155.561 274.321 155.291 274.402 155.042C274.483 154.793 274.651 154.582 274.876 154.447C277.728 152.734 279.475 149.137 279.502 144.794C279.502 141.319 278.52 138.379 276.664 136.517C275.943 135.802 275.084 135.243 274.14 134.873C273.195 134.502 272.185 134.329 271.17 134.362C267.831 134.362 265.121 136.198 263.624 139.423C263.509 139.668 263.305 139.86 263.054 139.962C262.803 140.064 262.523 140.067 262.269 139.971C262.128 139.919 261.999 139.838 261.891 139.733C261.782 139.629 261.697 139.503 261.639 139.363C261.582 139.224 261.554 139.074 261.558 138.923C261.561 138.773 261.596 138.624 261.66 138.488C263.516 134.539 266.991 132.202 271.143 132.195C272.444 132.161 273.738 132.391 274.948 132.871C276.157 133.35 277.257 134.07 278.182 134.986C280.451 137.262 281.684 140.75 281.657 144.815C281.616 149.929 279.462 154.224 275.953 156.331C275.82 156.403 275.674 156.447 275.523 156.459C275.372 156.472 275.22 156.453 275.077 156.403C274.934 156.353 274.803 156.274 274.693 156.17C274.582 156.067 274.495 155.942 274.436 155.802Z" fill="#F0F0F0"/>
<path d="M266.632 147.802C266.487 147.861 266.331 147.888 266.175 147.881C266.019 147.874 265.866 147.834 265.727 147.762C265.588 147.691 265.467 147.59 265.37 147.467C265.274 147.344 265.205 147.202 265.169 147.05C265.094 146.759 265.04 146.454 264.992 146.142C264.376 142.078 266.557 138.562 270.059 137.932C270.875 137.755 271.721 137.771 272.529 137.979C273.337 138.187 274.085 138.582 274.713 139.131C274.831 139.236 274.924 139.366 274.984 139.512C275.045 139.657 275.072 139.814 275.064 139.972C275.055 140.129 275.012 140.283 274.936 140.421C274.86 140.559 274.754 140.679 274.625 140.77L274.557 140.818C274.354 140.959 274.109 141.026 273.862 141.008C273.615 140.989 273.382 140.886 273.203 140.716C272.823 140.395 272.373 140.167 271.89 140.05C271.407 139.932 270.903 139.928 270.418 140.039C267.75 140.52 266.733 143.297 267.113 145.79C267.153 146.034 267.194 146.271 267.255 146.467C267.32 146.722 267.291 146.993 267.173 147.228C267.055 147.463 266.855 147.648 266.611 147.748L266.632 147.802Z" fill="#F0F0F0"/>
<path d="M270.215 151.974C270.045 151.958 269.881 151.898 269.74 151.8C269.599 151.702 269.485 151.57 269.409 151.416C269.333 151.262 269.297 151.092 269.306 150.92C269.314 150.749 269.366 150.582 269.457 150.437L269.552 150.288C269.649 150.132 269.787 150.007 269.95 149.924C270.114 149.842 270.297 149.806 270.48 149.82C270.82 149.84 271.161 149.819 271.496 149.759C273.826 149.339 274.883 147.171 274.883 144.963C274.876 144.698 274.966 144.439 275.135 144.235C275.304 144.031 275.542 143.895 275.804 143.852C275.954 143.829 276.108 143.838 276.254 143.878C276.401 143.919 276.538 143.989 276.655 144.086C276.773 144.182 276.869 144.302 276.937 144.438C277.005 144.574 277.044 144.723 277.05 144.875C277.111 148.411 275.018 151.331 271.882 151.893C271.333 151.995 270.772 152.022 270.215 151.974Z" fill="#F0F0F0"/>
<path d="M270.696 147.971C270.149 147.925 269.63 147.709 269.212 147.353C268.794 146.997 268.498 146.519 268.366 145.986C268.328 145.836 268.326 145.679 268.361 145.527C268.395 145.376 268.466 145.236 268.566 145.117C268.666 144.999 268.793 144.906 268.936 144.846C269.079 144.786 269.234 144.761 269.389 144.774H269.639C269.829 144.794 270.009 144.868 270.157 144.988C270.305 145.109 270.415 145.269 270.473 145.451C270.496 145.545 270.549 145.63 270.623 145.693C270.697 145.756 270.789 145.795 270.886 145.803C271.408 145.851 271.496 145.126 271.509 144.95C271.541 144.686 271.491 144.419 271.367 144.184C271.18 143.958 271.083 143.671 271.096 143.378C271.113 143.163 271.194 142.958 271.329 142.789C271.463 142.62 271.645 142.495 271.851 142.43C272.057 142.366 272.278 142.364 272.485 142.425C272.692 142.487 272.876 142.609 273.013 142.775C273.542 143.443 273.785 144.293 273.69 145.139C273.514 146.921 272.261 148.106 270.696 147.971Z" fill="#F0F0F0"/>
<path d="M250.32 123.727C250.178 123.715 250.041 123.675 249.914 123.61C249.788 123.544 249.676 123.454 249.585 123.345C249.494 123.236 249.425 123.111 249.382 122.975C249.34 122.839 249.325 122.696 249.338 122.555L250.158 113.159L259.553 113.986C259.695 113.998 259.833 114.038 259.959 114.103C260.085 114.168 260.197 114.258 260.288 114.367C260.38 114.476 260.448 114.602 260.491 114.738C260.533 114.873 260.548 115.016 260.535 115.158C260.523 115.3 260.484 115.438 260.418 115.564C260.353 115.691 260.263 115.803 260.154 115.895C260.045 115.987 259.92 116.056 259.784 116.1C259.648 116.143 259.505 116.159 259.363 116.147L252.129 115.51L251.499 122.745C251.486 122.887 251.445 123.025 251.379 123.151C251.313 123.277 251.223 123.389 251.113 123.48C251.004 123.571 250.877 123.64 250.741 123.682C250.605 123.725 250.462 123.74 250.32 123.727Z" fill="#F0F0F0"/>
<path d="M294.981 127.635C294.839 127.624 294.702 127.584 294.575 127.518C294.449 127.453 294.337 127.363 294.246 127.254C294.155 127.145 294.086 127.019 294.043 126.883C294.001 126.748 293.986 126.605 293.999 126.464L294.629 119.229L287.394 118.599C287.252 118.586 287.114 118.546 286.988 118.479C286.862 118.413 286.75 118.323 286.659 118.213C286.567 118.104 286.499 117.977 286.456 117.841C286.414 117.705 286.399 117.562 286.412 117.42C286.424 117.279 286.464 117.141 286.529 117.015C286.595 116.888 286.684 116.776 286.793 116.685C286.902 116.594 287.028 116.525 287.164 116.483C287.3 116.44 287.442 116.425 287.584 116.438L296.979 117.258L296.16 126.674C296.129 126.957 295.988 127.216 295.768 127.396C295.547 127.576 295.265 127.662 294.981 127.635Z" fill="#F0F0F0"/>
<path d="M291.655 178.156L282.259 177.336C282.118 177.324 281.98 177.283 281.853 177.217C281.727 177.151 281.615 177.06 281.524 176.951C281.433 176.841 281.364 176.715 281.322 176.579C281.279 176.443 281.264 176.3 281.277 176.158C281.289 176.016 281.329 175.878 281.394 175.752C281.46 175.626 281.55 175.514 281.659 175.422C281.768 175.331 281.894 175.262 282.029 175.22C282.165 175.178 282.308 175.162 282.449 175.175L289.684 175.805L290.314 168.578C290.326 168.435 290.366 168.296 290.432 168.169C290.497 168.042 290.588 167.93 290.697 167.838C290.807 167.746 290.933 167.676 291.07 167.634C291.206 167.591 291.35 167.575 291.492 167.589C291.634 167.6 291.772 167.64 291.898 167.706C292.024 167.771 292.136 167.861 292.228 167.97C292.319 168.079 292.388 168.205 292.43 168.34C292.473 168.476 292.488 168.619 292.475 168.76L291.655 178.156Z" fill="#F0F0F0"/>
<path d="M254.229 174.864L244.833 174.037L245.653 164.649C245.68 164.362 245.819 164.098 246.04 163.913C246.26 163.728 246.545 163.637 246.831 163.66C246.973 163.672 247.111 163.713 247.238 163.779C247.364 163.845 247.476 163.936 247.567 164.045C247.658 164.155 247.727 164.281 247.769 164.417C247.812 164.553 247.827 164.696 247.814 164.838L247.184 172.059L254.412 172.696C254.554 172.708 254.692 172.748 254.818 172.813C254.945 172.879 255.057 172.968 255.149 173.077C255.241 173.186 255.31 173.312 255.353 173.448C255.397 173.583 255.413 173.726 255.401 173.868C255.376 174.155 255.24 174.421 255.02 174.608C254.8 174.794 254.516 174.886 254.229 174.864Z" fill="#F0F0F0"/>
<path d="M50.6222 154.535C50.4457 154.549 50.271 154.492 50.1355 154.378C50.0001 154.264 49.9146 154.102 49.8974 153.926L49.3961 148.154L55.1676 147.646C55.3441 147.633 55.5188 147.689 55.6542 147.803C55.7897 147.917 55.8752 148.08 55.8924 148.256C55.9038 148.431 55.8466 148.604 55.7328 148.738C55.619 148.872 55.4577 148.957 55.2827 148.974L50.839 149.367L51.2251 153.811C51.2384 153.986 51.183 154.16 51.0704 154.295C50.9579 154.43 50.7972 154.516 50.6222 154.535Z" fill="#E0E0E0"/>
<path d="M78.0841 152.13C77.9086 152.144 77.7349 152.088 77.5996 151.976C77.4643 151.863 77.3781 151.702 77.3593 151.528L76.9731 147.077L72.5226 147.47C72.3461 147.483 72.1714 147.427 72.0359 147.313C71.9005 147.199 71.815 147.036 71.7978 146.86C71.7846 146.684 71.841 146.509 71.9549 146.374C72.0688 146.238 72.2313 146.153 72.4075 146.135L78.1789 145.634L78.687 151.406C78.7003 151.581 78.6448 151.755 78.5323 151.89C78.4198 152.025 78.259 152.112 78.0841 152.13Z" fill="#E0E0E0"/>
<path d="M80.9291 176.998L75.1508 177.506C74.9743 177.519 74.7996 177.463 74.6642 177.349C74.5287 177.235 74.4432 177.072 74.426 176.896C74.4128 176.72 74.4692 176.545 74.5831 176.41C74.6971 176.274 74.8595 176.189 75.0357 176.171L79.4794 175.785L79.0933 171.342C79.08 171.166 79.1355 170.992 79.248 170.857C79.3605 170.722 79.5213 170.636 79.6962 170.617C79.8717 170.603 80.0454 170.659 80.1807 170.771C80.316 170.884 80.4022 171.045 80.421 171.22L80.9291 176.998Z" fill="#E0E0E0"/>
<path d="M57.9111 179.01L52.16 179.511L51.6519 173.733C51.6405 173.557 51.6978 173.384 51.8115 173.25C51.9253 173.116 52.0867 173.032 52.2616 173.015C52.4359 173.003 52.608 173.059 52.7418 173.172C52.8756 173.284 52.9608 173.444 52.9796 173.617L53.3725 178.068L57.8163 177.675C57.9928 177.662 58.1675 177.718 58.303 177.832C58.4384 177.946 58.5239 178.109 58.5411 178.285C58.5476 178.374 58.5364 178.463 58.5082 178.548C58.4799 178.632 58.4353 178.711 58.3768 178.778C58.3182 178.845 58.2469 178.901 58.167 178.94C58.0871 178.98 58.0002 179.004 57.9111 179.01Z" fill="#E0E0E0"/>
<path d="M77.6165 58.2562L55.5468 60.1529L55.0929 54.9844C55.0598 52.5176 55.9606 50.1295 57.6146 48.2992C59.2686 46.4688 61.5536 45.3316 64.0111 45.1156C66.4686 44.8996 68.9169 45.6208 70.8649 47.1345C72.8128 48.6483 74.1164 50.8426 74.514 53.2773L74.7715 56.285L77.962 56.0072L77.6978 52.9996C77.5493 51.3032 77.068 49.6526 76.2816 48.1422C75.4951 46.6318 74.4189 45.291 73.1143 44.1965C71.8097 43.102 70.3023 42.2752 68.6782 41.7632C67.054 41.2513 65.3449 41.0643 63.6485 41.2128C60.2224 41.5128 57.0559 43.1616 54.8454 45.7963C53.7509 47.1009 52.9241 48.6083 52.4122 50.2325C51.9002 51.8566 51.7132 53.5657 51.8617 55.2621L52.3156 60.4645C51.0589 60.7105 49.9376 61.4125 49.1672 62.4354C48.3969 63.4583 48.032 64.7299 48.1428 66.0057L49.7212 84.0516C49.7775 84.7327 49.9677 85.396 50.2811 86.0034C50.5945 86.6107 51.0247 87.1502 51.5471 87.5908C52.0696 88.0314 52.6739 88.3644 53.3254 88.5708C53.9769 88.7772 54.6628 88.8529 55.3436 88.7934L80.0891 86.6325C80.7701 86.5762 81.4334 86.3859 82.0408 86.0726C82.6481 85.7592 83.1876 85.329 83.6282 84.8066C84.0688 84.2841 84.4018 83.6798 84.6082 83.0283C84.8146 82.3768 84.8903 81.6909 84.8309 81.0101L83.2525 62.9642C83.1921 62.2848 82.9983 61.624 82.6822 61.0196C82.3662 60.4152 81.9341 59.879 81.4106 59.4417C80.8871 59.0044 80.2826 58.6747 79.6316 58.4713C78.9806 58.2678 78.2958 58.1948 77.6165 58.2562ZM68.2278 72.1633L68.7697 78.375C68.8061 78.625 68.7912 78.8798 68.7257 79.1239C68.6603 79.3679 68.5457 79.596 68.389 79.7942C68.2323 79.9923 68.0368 80.1564 67.8144 80.2764C67.5921 80.3964 67.3476 80.4697 67.0959 80.4919C66.8442 80.514 66.5906 80.4846 66.3508 80.4053C66.1109 80.3261 65.8897 80.1987 65.7007 80.0309C65.5118 79.8632 65.3591 79.6586 65.252 79.4298C65.1449 79.201 65.0856 78.9527 65.0778 78.7002L64.5359 72.4816C63.9771 72.1384 63.5408 71.6277 63.2891 71.0221C63.0374 70.4165 62.9833 69.747 63.1343 69.1088C63.2853 68.4706 63.6338 67.8964 64.1302 67.4678C64.6265 67.0392 65.2455 66.7781 65.8988 66.7218C66.5522 66.6654 67.2067 66.8167 67.7691 67.154C68.3316 67.4912 68.7732 67.9973 69.0313 68.6002C69.2893 69.2031 69.3506 69.8721 69.2063 70.5118C69.062 71.1516 68.7196 71.7295 68.2278 72.1633Z" fill="#EBEBEB"/>
<path d="M115.456 68.6817L113.228 65.0305C112.104 65.1905 110.964 65.1905 109.841 65.0305L107.605 68.6682L107.178 68.553C105.73 68.1714 104.34 67.5948 103.046 66.8392L102.667 66.6224L103.608 62.6664C103.627 62.5896 103.66 62.5173 103.706 62.4535C103.753 62.3897 103.811 62.3358 103.879 62.2949C103.946 62.2539 104.021 62.2267 104.099 62.2149C104.177 62.2031 104.257 62.2069 104.333 62.2261C104.487 62.263 104.619 62.3594 104.702 62.494C104.784 62.6286 104.81 62.7905 104.774 62.9441L104.028 66.0263C104.991 66.5507 106.006 66.973 107.056 67.2863L109.238 63.7231L109.637 63.7909C110.903 63.9942 112.192 63.9942 113.458 63.7909L113.851 63.7231L116.032 67.2863C117.083 66.9755 118.098 66.5531 119.06 66.0263L118.091 61.9619L118.416 61.7248C119.299 61.0884 120.09 60.334 120.767 59.4826C120.861 59.36 120.999 59.2787 121.152 59.2559C121.305 59.2332 121.461 59.2707 121.587 59.3607C121.653 59.4064 121.708 59.465 121.751 59.5331C121.793 59.6011 121.821 59.6771 121.833 59.7563C121.845 59.8356 121.841 59.9165 121.821 59.9941C121.801 60.0716 121.765 60.1442 121.715 60.2074C121.05 61.0481 120.283 61.8034 119.433 62.4564L120.428 66.6089L120.042 66.8256C118.751 67.5801 117.363 68.1566 115.917 68.5395L115.456 68.6817ZM101.759 60.729C101.576 60.519 101.393 60.2955 101.217 60.0516L97.0647 61.0474L96.8412 60.6681C96.0911 59.3718 95.5149 57.9825 95.1274 56.5359L95.019 56.1092L98.6566 53.8737C98.4966 52.7504 98.4966 51.6101 98.6566 50.4867L95.019 48.2581L95.1274 47.8245C95.5149 46.3801 96.0912 44.9931 96.8412 43.6992L97.0647 43.3131L101.217 44.3088C101.911 43.4016 102.721 42.5906 103.629 41.8973L102.877 38.7542C102.84 38.6006 102.866 38.4387 102.948 38.3041C103.031 38.1694 103.164 38.0731 103.317 38.0361C103.393 38.018 103.471 38.0151 103.548 38.0274C103.625 38.0398 103.698 38.0673 103.764 38.1082C103.831 38.1491 103.888 38.2027 103.933 38.2659C103.979 38.3291 104.011 38.4007 104.028 38.4764L104.97 42.3918L104.645 42.6221C103.601 43.373 102.686 44.2881 101.935 45.3317L101.698 45.6569L97.6338 44.6882C97.107 45.6497 96.6846 46.6648 96.3738 47.7162L99.9301 49.8974L99.8692 50.2903C99.6429 51.5538 99.6429 52.8474 99.8692 54.1108L99.9301 54.5105L96.3738 56.6917C96.6858 57.7405 97.1082 58.7532 97.6338 59.7129L101.698 58.7442L101.935 59.0694C102.146 59.3765 102.372 59.6727 102.613 59.9568C102.717 60.0664 102.775 60.2119 102.775 60.3632C102.775 60.5146 102.717 60.6601 102.613 60.7697C102.555 60.8249 102.487 60.8679 102.412 60.8959C102.337 60.9239 102.257 60.9364 102.177 60.9326C102.097 60.9287 102.019 60.9087 101.947 60.8738C101.875 60.8388 101.811 60.7895 101.759 60.729ZM125.969 61.061L124.439 60.6952C124.285 60.6582 124.152 60.5618 124.07 60.4272C123.987 60.2926 123.962 60.1307 123.998 59.9771C124.035 59.8236 124.132 59.691 124.266 59.6084C124.401 59.5259 124.563 59.5001 124.716 59.5368L125.394 59.6926C125.917 58.7327 126.337 57.72 126.647 56.6714L123.09 54.4902L123.158 54.0905C123.384 52.827 123.384 51.5334 123.158 50.27L123.09 49.8771L126.647 47.6958C126.338 46.6447 125.918 45.6296 125.394 44.6679L121.329 45.6365L121.099 45.3114C120.346 44.2693 119.431 43.3545 118.389 42.6018L118.064 42.3715L119.033 38.3071C118.071 37.7824 117.056 37.3623 116.005 37.0539L113.803 40.6441L113.41 40.5764C112.145 40.3731 110.855 40.3731 109.59 40.5764L109.19 40.6441L107.029 37.0674L106.623 37.1894C106.478 37.237 106.321 37.2262 106.184 37.1591C106.047 37.092 105.942 36.974 105.891 36.8303C105.863 36.7561 105.85 36.6771 105.853 36.5978C105.856 36.5186 105.875 36.4407 105.909 36.3688C105.942 36.2969 105.989 36.2323 106.048 36.179C106.107 36.1256 106.176 36.0846 106.25 36.0581C106.548 35.9633 106.853 35.8752 107.151 35.7939L107.578 35.6788L109.813 39.3232C110.936 39.1562 112.078 39.1562 113.2 39.3232L115.429 35.6788L115.863 35.7939C117.308 36.1798 118.695 36.7561 119.988 37.5077L120.374 37.7313L119.378 41.8837C120.287 42.5755 121.098 43.3867 121.79 44.2953L125.942 43.2995L126.166 43.6856C126.919 44.9781 127.495 46.3656 127.88 47.811L127.995 48.2445L124.35 50.4732C124.519 51.5959 124.519 52.7375 124.35 53.8602L127.995 56.0956L127.88 56.5224C127.495 57.97 126.919 59.3597 126.166 60.6545L125.969 61.061ZM111.351 57.9856C109.875 57.9271 108.475 57.3145 107.431 56.27C106.386 55.2254 105.774 53.8256 105.715 52.3496C105.675 50.8978 106.18 49.4835 107.13 48.3852C108.08 47.287 109.407 46.5843 110.85 46.4156C110.934 46.405 111.02 46.4125 111.102 46.4377C111.183 46.4628 111.259 46.5049 111.323 46.5612C111.387 46.6176 111.438 46.6868 111.473 46.7645C111.509 46.8421 111.527 46.9264 111.527 47.0117C111.527 47.1557 111.473 47.2946 111.377 47.4019C111.281 47.5093 111.149 47.5777 111.006 47.5942C110.002 47.7087 109.063 48.1496 108.334 48.8491C107.605 49.5486 107.126 50.4681 106.97 51.4663C106.815 52.4645 106.991 53.4863 107.472 54.3747C107.953 55.263 108.713 55.9689 109.634 56.3838C110.555 56.7987 111.587 56.8997 112.571 56.6713C113.555 56.4429 114.437 55.8977 115.082 55.1195C115.726 54.3413 116.097 53.3731 116.138 52.3636C116.178 51.3541 115.887 50.3592 115.307 49.5316C115.224 49.4143 115.187 49.27 115.204 49.127C115.222 48.9841 115.292 48.8529 115.402 48.7594C115.465 48.7032 115.54 48.6611 115.62 48.636C115.701 48.6108 115.786 48.6031 115.87 48.6133C115.954 48.6236 116.035 48.6516 116.107 48.6954C116.179 48.7393 116.242 48.798 116.289 48.8677C116.906 49.7493 117.264 50.7849 117.326 51.8587C117.387 52.9325 117.149 54.0023 116.637 54.9483C116.125 55.8944 115.361 56.6795 114.428 57.2159C113.496 57.7522 112.433 58.0187 111.358 57.9856H111.351Z" fill="#F0F0F0"/>
<path d="M73.3694 118.267L71.9265 115.917C71.1966 116.025 70.4548 116.025 69.7249 115.917L68.2821 118.267L68.0043 118.193C67.0692 117.946 66.1715 117.575 65.3354 117.089L65.0915 116.946L65.7012 114.386C65.7253 114.287 65.7871 114.203 65.8733 114.149C65.9594 114.096 66.0631 114.079 66.1618 114.101C66.2112 114.113 66.2578 114.135 66.2989 114.165C66.34 114.195 66.3747 114.232 66.4012 114.276C66.4276 114.319 66.4452 114.368 66.4529 114.418C66.4607 114.468 66.4584 114.519 66.4463 114.569L65.9721 116.56C66.5936 116.901 67.25 117.173 67.9298 117.373L69.3388 115.077L69.5895 115.117C70.4081 115.253 71.2434 115.253 72.062 115.117L72.3126 115.077L73.7284 117.373C74.4046 117.169 75.0582 116.897 75.6793 116.56L75.0561 113.946L75.2661 113.79C75.8356 113.381 76.3461 112.895 76.7835 112.347C76.843 112.266 76.9319 112.213 77.0309 112.197C77.1299 112.182 77.2309 112.207 77.3118 112.266C77.3534 112.295 77.3887 112.333 77.4157 112.376C77.4427 112.419 77.4608 112.468 77.469 112.518C77.4772 112.569 77.4753 112.62 77.4634 112.67C77.4516 112.719 77.43 112.766 77.3999 112.807C76.9683 113.351 76.4725 113.84 75.9232 114.264L76.6006 116.973L76.3499 117.116C75.5144 117.603 74.6165 117.974 73.681 118.22L73.3694 118.267ZM64.5225 113.126L64.1703 112.699L61.4606 113.336L61.3184 113.092C60.8412 112.252 60.4789 111.352 60.2413 110.416L60.1668 110.139L62.5174 108.696C62.409 107.966 62.409 107.224 62.5174 106.494L60.1668 105.051L60.2413 104.774C60.4869 103.838 60.8583 102.94 61.3455 102.105L61.4877 101.854L64.1973 102.531C64.6331 101.938 65.1405 101.401 65.708 100.933L65.227 98.9004C65.2149 98.8515 65.2128 98.8006 65.2206 98.7508C65.2284 98.701 65.2461 98.6533 65.2726 98.6104C65.2991 98.5675 65.3339 98.5304 65.3749 98.5011C65.4159 98.4718 65.4623 98.4509 65.5115 98.4398C65.6103 98.4173 65.7139 98.4346 65.8 98.4878C65.8862 98.541 65.948 98.626 65.9721 98.7243L66.5818 101.251L66.365 101.407C65.6937 101.888 65.1057 102.476 64.6241 103.148L64.4683 103.358L61.8535 102.735C61.5171 103.356 61.2448 104.009 61.0407 104.685L63.337 106.094L63.2964 106.352C63.2266 106.759 63.1903 107.171 63.188 107.585C63.1903 108 63.2265 108.415 63.2964 108.824L63.337 109.075L61.0407 110.484C61.2435 111.163 61.5159 111.819 61.8535 112.442L64.4683 111.812L64.6241 112.022C64.7641 112.222 64.9156 112.415 65.078 112.597C65.1447 112.668 65.1818 112.761 65.1818 112.858C65.1818 112.955 65.1447 113.049 65.078 113.119C65.0429 113.158 65.0003 113.189 64.9528 113.21C64.9053 113.231 64.8538 113.243 64.8017 113.243C64.7496 113.244 64.6979 113.234 64.6499 113.214C64.6018 113.193 64.5585 113.164 64.5225 113.126ZM80.1637 113.336L79.1747 113.106C79.1253 113.094 79.0787 113.072 79.0376 113.042C78.9965 113.012 78.9618 112.974 78.9353 112.931C78.9089 112.887 78.8913 112.839 78.8836 112.789C78.8758 112.739 78.8781 112.687 78.8902 112.638C78.9013 112.589 78.9221 112.543 78.9514 112.501C78.9807 112.46 79.0179 112.426 79.0608 112.399C79.1037 112.373 79.1514 112.355 79.2012 112.347C79.251 112.339 79.3019 112.342 79.3508 112.354L79.7776 112.455C80.118 111.834 80.3906 111.177 80.5905 110.498L78.2941 109.089L78.3347 108.838C78.4046 108.428 78.4409 108.014 78.4431 107.598C78.4408 107.185 78.4046 106.773 78.3347 106.365L78.2941 106.108L80.5905 104.699C80.3893 104.022 80.1168 103.368 79.7776 102.748L77.1628 103.371L77.007 103.161C76.5254 102.49 75.9374 101.902 75.2661 101.42L75.0561 101.265L75.6793 98.6498C75.0596 98.3106 74.4056 98.0381 73.7284 97.8369L72.3126 100.133L72.062 100.093C71.2434 99.9572 70.4081 99.9572 69.5895 100.093L69.3388 100.133L67.9298 97.8369L67.6656 97.9182C67.5713 97.9484 67.4689 97.9405 67.3803 97.8962C67.2916 97.8519 67.2239 97.7747 67.1915 97.6811C67.1732 97.6336 67.1647 97.5829 67.1665 97.532C67.1683 97.4812 67.1802 97.4312 67.2017 97.385C67.2232 97.3389 67.2538 97.2975 67.2916 97.2634C67.3294 97.2294 67.3737 97.2032 67.4218 97.1866L68.0043 97.0105L68.2821 96.9427L69.7249 99.2933C70.4548 99.1849 71.1966 99.1849 71.9265 99.2933L73.3694 96.9427L73.6471 97.0105C74.5819 97.2613 75.4794 97.6349 76.3161 98.1214L76.5667 98.2637L75.8893 100.973C76.4726 101.424 76.9961 101.948 77.4473 102.531L80.1569 101.854L80.2992 102.105C80.7864 102.94 81.1578 103.838 81.4033 104.774L81.4778 105.051L79.1273 106.494C79.2357 107.224 79.2357 107.966 79.1273 108.696L81.4778 110.139L81.4033 110.416C81.1566 111.351 80.7852 112.249 80.2992 113.085L80.1637 113.336ZM70.7207 111.351C69.8003 111.288 68.9353 110.888 68.2911 110.227C67.6469 109.567 67.2685 108.692 67.2283 107.771C67.1881 106.849 67.4888 105.945 68.073 105.231C68.6573 104.517 69.4841 104.043 70.3956 103.9C70.4499 103.894 70.5048 103.9 70.5568 103.917C70.6088 103.933 70.6567 103.961 70.6975 103.997C70.7383 104.033 70.7711 104.078 70.7938 104.128C70.8164 104.177 70.8285 104.231 70.8291 104.286C70.8296 104.38 70.7953 104.471 70.7327 104.541C70.6702 104.611 70.5838 104.655 70.4904 104.665C69.919 104.73 69.3788 104.96 68.9348 105.325C68.4908 105.691 68.162 106.177 67.9881 106.725C67.8142 107.273 67.8026 107.86 67.9547 108.415C68.1068 108.969 68.4161 109.468 68.8453 109.851C69.2745 110.234 69.8052 110.484 70.3736 110.572C70.9419 110.66 71.5236 110.581 72.0483 110.346C72.5731 110.111 73.0186 109.729 73.3312 109.246C73.6437 108.763 73.8099 108.2 73.8097 107.625C73.811 107.014 73.6215 106.417 73.2678 105.918C73.216 105.841 73.1937 105.748 73.2049 105.656C73.2161 105.564 73.2601 105.479 73.3287 105.417C73.3695 105.38 73.4177 105.353 73.4699 105.336C73.5222 105.32 73.5774 105.314 73.6319 105.321C73.6864 105.327 73.7389 105.345 73.7859 105.373C73.8329 105.402 73.8733 105.44 73.9045 105.485C74.3007 106.055 74.531 106.723 74.5699 107.416C74.6088 108.11 74.4548 108.8 74.1248 109.41C73.7949 110.021 73.3021 110.528 72.7011 110.876C72.1001 111.223 71.4146 111.397 70.7207 111.378V111.351Z" fill="#E6E6E6"/>
<path d="M169.35 252C241.888 252 300.692 248.567 300.692 244.332C300.692 240.097 241.888 236.663 169.35 236.663C96.8126 236.663 38.0091 240.097 38.0091 244.332C38.0091 248.567 96.8126 252 169.35 252Z" fill="#F5F5F5"/>
<path d="M246.202 61.5279H224.145L208.565 239.854H230.621C233.717 239.794 236.684 238.603 238.962 236.507C241.241 234.411 242.674 231.553 242.991 228.473L256.6 72.9014C256.758 71.4519 256.605 69.9853 256.152 68.5994C255.699 67.2135 254.956 65.9401 253.972 64.8639C252.988 63.7878 251.786 62.9336 250.446 62.3584C249.106 61.7831 247.659 61.5 246.202 61.5279Z" fill="#407BFF"/>
<path d="M241.704 61.528H167.054C163.958 61.586 160.991 62.7746 158.711 64.8698C156.431 66.9649 154.997 69.8217 154.678 72.9016L141.069 228.473C140.912 229.922 141.065 231.387 141.518 232.772C141.971 234.157 142.713 235.429 143.695 236.506C144.677 237.582 145.876 238.437 147.214 239.014C148.552 239.591 149.997 239.878 151.454 239.854H226.096C229.188 239.788 232.149 238.595 234.423 236.499C236.697 234.403 238.127 231.549 238.445 228.473L252.054 72.9016C252.212 71.4561 252.061 69.9937 251.61 68.6111C251.16 67.2286 250.421 65.9575 249.442 64.8821C248.464 63.8068 247.268 62.9516 245.933 62.3734C244.599 61.7951 243.158 61.507 241.704 61.528Z" fill="#407BFF"/>
<path opacity="0.3" d="M241.704 61.528H167.054C163.958 61.586 160.991 62.7746 158.711 64.8698C156.431 66.9649 154.997 69.8217 154.678 72.9016L141.069 228.473C140.912 229.922 141.065 231.387 141.518 232.772C141.971 234.157 142.713 235.429 143.695 236.506C144.677 237.582 145.876 238.437 147.214 239.014C148.552 239.591 149.997 239.878 151.454 239.854H226.096C229.188 239.788 232.149 238.595 234.423 236.499C236.697 234.403 238.127 231.549 238.445 228.473L252.054 72.9016C252.212 71.4561 252.061 69.9937 251.61 68.6111C251.16 67.2286 250.421 65.9575 249.442 64.8821C248.464 63.8068 247.268 62.9516 245.933 62.3734C244.599 61.7951 243.158 61.507 241.704 61.528Z" fill="white"/>
<path opacity="0.4" d="M241.385 65.1723H221.7C221.113 65.1771 220.541 65.3579 220.058 65.6912C219.575 66.0245 219.203 66.495 218.99 67.042C218.214 69.051 216.857 70.7832 215.091 72.0175C213.326 73.2518 211.233 73.9321 209.08 73.9718H197.469C195.441 74.0127 193.462 73.345 191.873 72.0838C190.284 70.8226 189.185 69.0468 188.765 67.0623C188.653 66.5254 188.356 66.0445 187.927 65.7031C187.498 65.3616 186.963 65.1811 186.414 65.1927H166.736C164.632 65.2299 162.614 66.037 161.065 67.4613C159.516 68.8856 158.542 70.8283 158.329 72.9218L144.713 228.494C144.604 229.479 144.707 230.476 145.013 231.418C145.32 232.36 145.824 233.227 146.492 233.959C147.16 234.691 147.977 235.272 148.887 235.664C149.798 236.055 150.781 236.248 151.772 236.23H226.421C228.526 236.191 230.544 235.382 232.093 233.957C233.642 232.531 234.615 230.588 234.828 228.494L248.437 72.9218C248.548 71.9363 248.447 70.9384 248.142 69.9949C247.837 69.0514 247.333 68.1839 246.666 67.4504C245.998 66.7169 245.182 66.1342 244.271 65.7414C243.361 65.3485 242.377 65.1545 241.385 65.1723Z" fill="white"/>
<path d="M222.784 149.705H170.543C170.184 149.711 169.827 149.64 169.498 149.498C169.168 149.356 168.872 149.145 168.63 148.88C168.388 148.615 168.205 148.301 168.093 147.96C167.982 147.619 167.944 147.257 167.982 146.9L168.246 143.906C168.324 143.147 168.677 142.443 169.239 141.926C169.8 141.409 170.532 141.116 171.295 141.102H223.543C223.902 141.096 224.258 141.166 224.588 141.309C224.917 141.451 225.213 141.662 225.455 141.927C225.697 142.192 225.88 142.506 225.992 142.847C226.104 143.188 226.142 143.549 226.103 143.906L225.846 146.9C225.766 147.661 225.411 148.367 224.847 148.884C224.283 149.4 223.549 149.692 222.784 149.705Z" fill="white"/>
<path d="M221.659 162.576H169.411C169.053 162.582 168.697 162.511 168.367 162.369C168.038 162.227 167.742 162.016 167.501 161.75C167.259 161.485 167.077 161.171 166.966 160.83C166.855 160.489 166.818 160.128 166.858 159.771L167.115 156.777C167.194 156.018 167.548 155.315 168.109 154.798C168.67 154.282 169.401 153.988 170.163 153.973H222.411C222.77 153.967 223.127 154.037 223.456 154.179C223.786 154.322 224.082 154.532 224.324 154.797C224.566 155.063 224.749 155.376 224.861 155.718C224.972 156.059 225.01 156.42 224.972 156.777L224.708 159.771C224.629 160.53 224.275 161.233 223.714 161.75C223.153 162.266 222.422 162.56 221.659 162.576Z" fill="white"/>
<path opacity="0.1" d="M206.912 68.0854C206.826 68.9284 206.434 69.7105 205.81 70.2836C205.185 70.8566 204.373 71.1808 203.525 71.1947C203.127 71.2019 202.732 71.1241 202.366 70.9666C202 70.8092 201.672 70.5756 201.403 70.2814C201.135 69.9873 200.932 69.6393 200.809 69.2606C200.685 68.882 200.644 68.4813 200.687 68.0854C200.773 67.2424 201.165 66.4603 201.79 65.8872C202.414 65.3142 203.227 64.99 204.074 64.9761C204.472 64.969 204.867 65.0467 205.233 65.2042C205.599 65.3616 205.927 65.5952 206.196 65.8894C206.464 66.1836 206.667 66.5315 206.791 66.9102C206.914 67.2888 206.956 67.6895 206.912 68.0854Z" fill="black"/>
<path opacity="0.1" d="M205.503 68.0855C205.455 68.5457 205.241 68.9726 204.9 69.2857C204.56 69.5989 204.117 69.7767 203.654 69.7858C203.436 69.79 203.22 69.7477 203.02 69.6617C202.82 69.5757 202.64 69.448 202.493 69.287C202.346 69.1261 202.236 68.9356 202.168 68.7284C202.101 68.5212 202.079 68.3021 202.103 68.0855C202.149 67.6248 202.363 67.1971 202.704 66.8837C203.045 66.5703 203.489 66.3929 203.952 66.3853C204.17 66.3821 204.385 66.4252 204.585 66.5116C204.785 66.5979 204.964 66.7257 205.11 66.8864C205.257 67.0471 205.368 67.2371 205.435 67.4438C205.503 67.6505 205.526 67.8692 205.503 68.0855Z" fill="black"/>
<g opacity="0.8">
<path d="M232.193 73.2737C232.076 73.2754 231.96 73.2522 231.853 73.2057C231.746 73.1592 231.65 73.0904 231.571 73.004C231.492 72.9176 231.433 72.8154 231.396 72.7042C231.36 72.5931 231.348 72.4755 231.36 72.3593L231.509 70.6928C231.534 70.4466 231.648 70.2181 231.831 70.0507C232.013 69.8834 232.251 69.7889 232.498 69.7851C232.614 69.7836 232.73 69.8067 232.836 69.8528C232.943 69.8989 233.039 69.967 233.118 70.0526C233.196 70.1383 233.256 70.2396 233.293 70.35C233.33 70.4603 233.343 70.5771 233.331 70.6928L233.182 72.3593C233.157 72.6062 233.043 72.8355 232.861 73.0039C232.679 73.1724 232.441 73.2684 232.193 73.2737Z" fill="white"/>
<path d="M239.482 73.274C239.365 73.2756 239.249 73.2524 239.142 73.2059C239.035 73.1594 238.938 73.0907 238.86 73.0043C238.781 72.9178 238.721 72.8157 238.685 72.7045C238.649 72.5934 238.636 72.4758 238.649 72.3595L238.994 68.4509C239.019 68.2047 239.134 67.9762 239.316 67.8088C239.498 67.6415 239.736 67.5469 239.983 67.5432C240.1 67.5417 240.215 67.5647 240.322 67.6108C240.429 67.6569 240.524 67.725 240.603 67.8107C240.682 67.8964 240.741 67.9977 240.778 68.108C240.815 68.2183 240.828 68.3352 240.817 68.4509L240.471 72.3595C240.446 72.6064 240.332 72.8357 240.15 73.0042C239.968 73.1727 239.73 73.2686 239.482 73.274Z" fill="white"/>
<path d="M235.838 73.2738C235.721 73.2754 235.605 73.2522 235.498 73.2057C235.39 73.1592 235.294 73.0905 235.215 73.004C235.137 72.9176 235.077 72.8154 235.041 72.7043C235.004 72.5931 234.992 72.4756 235.004 72.3593L235.248 69.5752C235.273 69.3271 235.388 69.0969 235.572 68.9283C235.756 68.7597 235.995 68.6644 236.244 68.6607C236.361 68.6589 236.476 68.6821 236.583 68.7287C236.69 68.7752 236.786 68.8441 236.865 68.9307C236.943 69.0173 237.002 69.1195 237.037 69.2307C237.073 69.3418 237.084 69.4593 237.071 69.5752L236.827 72.3593C236.802 72.6062 236.688 72.8355 236.505 73.004C236.323 73.1724 236.086 73.2684 235.838 73.2738Z" fill="white"/>
</g>
<g opacity="0.8">
<path d="M169.784 73.2741H165.205C165.139 73.2755 165.073 73.2628 165.013 73.2367C164.952 73.2107 164.898 73.172 164.854 73.1232C164.809 73.0744 164.776 73.0166 164.756 72.9539C164.736 72.8911 164.73 72.8247 164.737 72.7593L164.947 70.3003C164.962 70.1607 165.027 70.0313 165.131 69.9365C165.235 69.8417 165.369 69.788 165.51 69.7855H170.089C170.155 69.784 170.22 69.7968 170.281 69.8228C170.341 69.8488 170.395 69.8875 170.44 69.9364C170.484 69.9852 170.517 70.0429 170.537 70.1057C170.558 70.1685 170.564 70.2348 170.556 70.3003L170.339 72.7593C170.328 72.8988 170.264 73.029 170.161 73.1242C170.059 73.2194 169.924 73.2729 169.784 73.2741Z" fill="white"/>
<path d="M171.904 72.6032C171.838 72.6045 171.773 72.5917 171.712 72.5658C171.651 72.5398 171.596 72.5012 171.551 72.4525C171.507 72.4039 171.473 72.3462 171.452 72.2835C171.431 72.2207 171.423 72.1542 171.43 72.0884L171.532 70.9639C171.545 70.8237 171.61 70.6935 171.714 70.5984C171.818 70.5033 171.953 70.4501 172.094 70.4491C172.16 70.4476 172.225 70.4604 172.286 70.4864C172.346 70.5124 172.401 70.5511 172.445 70.5999C172.489 70.6487 172.523 70.7065 172.543 70.7693C172.563 70.8321 172.569 70.8984 172.561 70.9639L172.467 72.0884C172.452 72.228 172.386 72.3573 172.283 72.4521C172.179 72.547 172.045 72.6007 171.904 72.6032Z" fill="white"/>
</g>
<path d="M214.176 130.014C223.291 121.288 224.2 107.444 216.206 99.0933C208.212 90.7426 194.342 91.047 185.227 99.7732C176.111 108.499 175.202 122.343 183.196 130.694C191.19 139.044 205.06 138.74 214.176 130.014Z" fill="white"/>
<path d="M199.779 114.06C194.035 114.06 189.178 116.248 188.765 120.997L188.304 126.274H209.121L209.581 120.997C209.995 116.248 205.53 114.06 199.779 114.06Z" fill="#407BFF"/>
<path d="M199.969 111.885C202.638 111.885 203.871 109.724 204.101 107.055C204.331 104.386 203.485 102.225 200.816 102.225C198.147 102.225 196.921 104.393 196.684 107.055C196.447 109.718 197.3 111.885 199.969 111.885Z" fill="#407BFF"/>
<path d="M220.399 145.221C218.983 145.221 217.784 145.763 217.69 146.935L217.574 148.242H222.716L222.831 146.935C222.926 145.763 221.822 145.221 220.399 145.221Z" fill="#407BFF"/>
<path d="M220.447 144.685C221.124 144.685 221.409 144.15 221.47 143.493C221.531 142.836 221.314 142.301 220.657 142.301C220 142.301 219.695 142.836 219.634 143.493C219.573 144.15 219.79 144.685 220.447 144.685Z" fill="#407BFF"/>
<path d="M204.575 175.446H184.253C183.702 175.456 183.155 175.349 182.649 175.131C182.143 174.913 181.689 174.59 181.317 174.183C180.945 173.776 180.665 173.295 180.493 172.771C180.322 172.247 180.265 171.693 180.324 171.145C180.445 169.98 180.987 168.899 181.85 168.107C182.712 167.315 183.834 166.865 185.005 166.843H205.327C205.878 166.834 206.424 166.943 206.93 167.161C207.436 167.379 207.889 167.702 208.261 168.109C208.632 168.515 208.913 168.996 209.085 169.52C209.256 170.043 209.315 170.597 209.256 171.145C209.137 172.31 208.595 173.391 207.732 174.184C206.87 174.977 205.747 175.426 204.575 175.446Z" fill="#407BFF"/>
<path d="M202.116 223.42H180.365C179.781 223.435 179.201 223.325 178.664 223.097C178.127 222.868 177.645 222.527 177.252 222.096C176.859 221.664 176.563 221.153 176.385 220.597C176.206 220.042 176.15 219.454 176.219 218.874L177.608 203.009C177.732 201.779 178.303 200.636 179.213 199.799C180.124 198.961 181.309 198.486 182.546 198.464H204.304C204.886 198.454 205.464 198.568 205.998 198.798C206.533 199.028 207.012 199.37 207.404 199.8C207.796 200.23 208.093 200.739 208.273 201.292C208.453 201.845 208.514 202.431 208.45 203.009L207.061 218.874C206.934 220.105 206.361 221.247 205.45 222.084C204.539 222.921 203.353 223.396 202.116 223.42Z" fill="#407BFF"/>
<g opacity="0.6">
<path d="M195.41 207.013C195.446 206.667 195.407 206.317 195.298 205.987C195.188 205.656 195.009 205.353 194.774 205.097C194.538 204.841 194.251 204.638 193.931 204.501C193.611 204.364 193.265 204.297 192.917 204.303C192.176 204.314 191.465 204.595 190.917 205.095C190.369 205.594 190.023 206.276 189.944 207.013C189.9 207.425 189.962 207.841 190.121 208.224C190.281 208.606 190.535 208.942 190.858 209.201L190.384 214.668C190.361 214.875 190.382 215.084 190.446 215.282C190.511 215.481 190.617 215.663 190.757 215.817C190.898 215.971 191.069 216.093 191.261 216.175C191.452 216.257 191.659 216.298 191.867 216.293C192.309 216.284 192.732 216.114 193.056 215.814C193.38 215.515 193.584 215.107 193.629 214.668L194.11 209.201C194.473 208.953 194.777 208.629 195.002 208.251C195.226 207.873 195.366 207.45 195.41 207.013Z" fill="white"/>
</g>
<path d="M204.494 201.77H201.69L202.367 193.919C202.485 192.829 202.37 191.727 202.03 190.685C201.69 189.643 201.132 188.686 200.393 187.876C199.655 187.066 198.752 186.423 197.746 185.989C196.74 185.554 195.652 185.339 194.557 185.357C192.228 185.402 189.996 186.298 188.281 187.875C186.567 189.452 185.488 191.602 185.249 193.919L184.572 201.77H181.767L182.445 193.919C182.76 190.844 184.19 187.991 186.465 185.898C188.741 183.805 191.703 182.617 194.794 182.559C196.248 182.534 197.692 182.819 199.028 183.395C200.364 183.971 201.562 184.824 202.543 185.899C203.524 186.973 204.265 188.244 204.717 189.627C205.169 191.01 205.321 192.473 205.165 193.919L204.494 201.77Z" fill="#407BFF"/>
<path d="M220.745 157.245L220.833 156.479C220.851 156.302 220.831 156.123 220.776 155.953C220.72 155.784 220.629 155.628 220.508 155.497C220.388 155.365 220.241 155.26 220.078 155.189C219.914 155.118 219.738 155.082 219.559 155.084C219.18 155.092 218.816 155.238 218.537 155.495C218.257 155.752 218.081 156.102 218.042 156.479L217.974 157.231C217.823 157.236 217.678 157.295 217.567 157.399C217.456 157.502 217.386 157.643 217.371 157.794L217.195 159.826C217.186 159.897 217.193 159.969 217.215 160.037C217.236 160.105 217.273 160.168 217.321 160.221C217.369 160.274 217.429 160.315 217.495 160.343C217.561 160.371 217.632 160.384 217.703 160.381H220.494C220.645 160.379 220.79 160.321 220.901 160.218C221.012 160.116 221.082 159.976 221.097 159.826L221.273 157.794C221.279 157.722 221.269 157.65 221.245 157.582C221.221 157.514 221.183 157.452 221.133 157.4C221.083 157.348 221.022 157.308 220.955 157.281C220.889 157.254 220.817 157.242 220.745 157.245ZM219.478 155.443C219.612 155.441 219.746 155.468 219.869 155.522C219.992 155.575 220.103 155.654 220.194 155.753C220.285 155.852 220.353 155.969 220.396 156.097C220.438 156.224 220.453 156.359 220.44 156.493L220.372 157.245H218.272L218.34 156.493C218.37 156.21 218.501 155.947 218.711 155.753C218.92 155.56 219.193 155.45 219.478 155.443Z" fill="#407BFF"/>
<path d="M178.733 158.051L177.757 157.847C177.73 157.842 177.704 157.83 177.682 157.813C177.66 157.797 177.642 157.775 177.63 157.75C177.618 157.725 177.611 157.698 177.611 157.67C177.61 157.643 177.616 157.615 177.628 157.59L178.035 156.628C178.052 156.587 178.053 156.54 178.039 156.498C178.025 156.455 177.997 156.419 177.959 156.395C177.921 156.372 177.875 156.362 177.831 156.369C177.787 156.376 177.746 156.398 177.716 156.432L176.978 157.19C176.96 157.213 176.938 157.231 176.912 157.244C176.886 157.256 176.858 157.263 176.829 157.263C176.8 157.263 176.772 157.256 176.746 157.244C176.72 157.231 176.698 157.213 176.68 157.19L176.077 156.432C175.948 156.269 175.671 156.432 175.718 156.628L175.955 157.59C175.962 157.618 175.963 157.647 175.958 157.676C175.953 157.704 175.943 157.732 175.927 157.756C175.911 157.78 175.89 157.801 175.866 157.816C175.842 157.832 175.814 157.843 175.786 157.847L174.776 158.051C174.56 158.091 174.533 158.396 174.743 158.437L175.718 158.64C175.745 158.645 175.771 158.657 175.793 158.674C175.815 158.691 175.833 158.713 175.845 158.738C175.856 158.763 175.862 158.79 175.861 158.818C175.861 158.846 175.853 158.873 175.84 158.897L175.447 159.866C175.43 159.908 175.429 159.954 175.442 159.997C175.456 160.039 175.485 160.076 175.523 160.099C175.561 160.123 175.607 160.132 175.651 160.125C175.695 160.119 175.736 160.096 175.765 160.063L176.504 159.304C176.523 159.283 176.546 159.267 176.572 159.256C176.597 159.245 176.625 159.239 176.653 159.239C176.681 159.239 176.709 159.245 176.734 159.256C176.76 159.267 176.783 159.283 176.802 159.304L177.405 160.063C177.534 160.225 177.811 160.063 177.757 159.866L177.52 158.904C177.51 158.847 177.523 158.788 177.556 158.74C177.589 158.692 177.639 158.658 177.696 158.647L178.705 158.444C178.915 158.396 178.943 158.091 178.733 158.051Z" fill="#263238"/>
<path d="M185.141 158.051L184.165 157.847C184.138 157.842 184.113 157.83 184.091 157.813C184.069 157.797 184.051 157.775 184.038 157.75C184.026 157.725 184.019 157.698 184.019 157.67C184.019 157.643 184.025 157.615 184.037 157.59L184.443 156.628C184.46 156.587 184.462 156.54 184.448 156.498C184.434 156.455 184.405 156.419 184.367 156.395C184.329 156.372 184.283 156.362 184.239 156.369C184.195 156.376 184.154 156.398 184.125 156.432L183.386 157.19C183.369 157.213 183.346 157.231 183.32 157.244C183.294 157.256 183.266 157.263 183.237 157.263C183.209 157.263 183.18 157.256 183.154 157.244C183.129 157.231 183.106 157.213 183.088 157.19L182.485 156.432C182.357 156.269 182.079 156.432 182.133 156.628L182.37 157.59C182.376 157.619 182.376 157.648 182.37 157.677C182.365 157.705 182.353 157.732 182.337 157.756C182.32 157.78 182.299 157.801 182.275 157.816C182.25 157.832 182.223 157.843 182.194 157.847L181.185 158.051C180.968 158.091 180.941 158.396 181.151 158.437L182.126 158.64C182.153 158.646 182.179 158.657 182.201 158.674C182.223 158.691 182.241 158.713 182.253 158.737C182.266 158.762 182.272 158.79 182.273 158.817C182.273 158.845 182.267 158.872 182.255 158.897L181.849 159.859C181.832 159.901 181.83 159.947 181.844 159.99C181.858 160.032 181.886 160.069 181.925 160.092C181.963 160.116 182.008 160.125 182.052 160.118C182.097 160.112 182.137 160.09 182.167 160.056L182.905 159.297C182.924 159.277 182.947 159.26 182.973 159.249C182.999 159.238 183.026 159.232 183.054 159.232C183.082 159.232 183.11 159.238 183.136 159.249C183.161 159.26 183.184 159.277 183.203 159.297L183.806 160.056C183.935 160.218 184.213 160.056 184.165 159.859L183.928 158.897C183.922 158.869 183.922 158.84 183.927 158.812C183.933 158.784 183.943 158.757 183.959 158.733C183.975 158.709 183.995 158.689 184.019 158.673C184.043 158.657 184.069 158.646 184.098 158.64L185.107 158.437C185.324 158.396 185.351 158.091 185.141 158.051Z" fill="#263238"/>
<path d="M191.549 158.051L190.58 157.847C190.552 157.843 190.526 157.832 190.503 157.816C190.48 157.799 190.462 157.777 190.449 157.752C190.436 157.727 190.43 157.699 190.431 157.671C190.431 157.642 190.438 157.615 190.451 157.59L190.858 156.628C190.884 156.585 190.892 156.533 190.88 156.484C190.868 156.435 190.837 156.393 190.794 156.367C190.75 156.341 190.699 156.333 190.65 156.345C190.601 156.357 190.559 156.388 190.533 156.432L189.801 157.19C189.783 157.213 189.759 157.231 189.733 157.244C189.707 157.256 189.678 157.263 189.649 157.263C189.62 157.263 189.591 157.256 189.564 157.244C189.538 157.231 189.515 157.213 189.496 157.19L188.893 156.432C188.765 156.269 188.487 156.432 188.541 156.628L188.778 157.59C188.784 157.618 188.785 157.647 188.779 157.675C188.774 157.703 188.763 157.73 188.747 157.754C188.732 157.778 188.711 157.799 188.687 157.815C188.664 157.831 188.637 157.842 188.609 157.847L187.6 158.051C187.383 158.091 187.356 158.396 187.566 158.437L188.534 158.64C188.562 158.645 188.587 158.657 188.609 158.674C188.631 158.691 188.649 158.713 188.661 158.737C188.674 158.762 188.68 158.789 188.681 158.817C188.681 158.845 188.675 158.872 188.663 158.897L188.257 159.859C188.231 159.902 188.223 159.954 188.235 160.003C188.247 160.052 188.278 160.094 188.321 160.12C188.364 160.146 188.416 160.154 188.465 160.142C188.514 160.13 188.556 160.099 188.582 160.056L189.313 159.297C189.332 159.276 189.355 159.26 189.381 159.249C189.407 159.238 189.434 159.232 189.462 159.232C189.49 159.232 189.518 159.238 189.544 159.249C189.569 159.26 189.592 159.276 189.611 159.297L190.221 160.056C190.35 160.218 190.628 160.056 190.573 159.859L190.336 158.897C190.326 158.841 190.338 158.783 190.37 158.735C190.401 158.687 190.45 158.653 190.506 158.64L191.515 158.437C191.705 158.396 191.759 158.091 191.549 158.051Z" fill="#263238"/>
<path d="M197.964 158.051L196.988 157.847C196.961 157.842 196.936 157.83 196.914 157.813C196.892 157.797 196.874 157.775 196.861 157.75C196.849 157.725 196.842 157.698 196.842 157.67C196.842 157.643 196.848 157.615 196.86 157.59L197.266 156.628C197.283 156.587 197.285 156.54 197.271 156.498C197.257 156.455 197.228 156.419 197.19 156.395C197.152 156.372 197.106 156.362 197.062 156.369C197.018 156.376 196.977 156.398 196.948 156.432L196.209 157.19C196.192 157.213 196.169 157.231 196.143 157.244C196.117 157.256 196.089 157.263 196.06 157.263C196.032 157.263 196.003 157.256 195.977 157.244C195.952 157.231 195.929 157.213 195.911 157.19L195.308 156.432C195.18 156.269 194.902 156.432 194.949 156.628L195.186 157.59C195.193 157.618 195.194 157.647 195.189 157.676C195.185 157.704 195.174 157.732 195.158 157.756C195.142 157.78 195.121 157.801 195.097 157.816C195.073 157.832 195.046 157.843 195.017 157.847L194.008 158.051C193.791 158.091 193.764 158.396 194.008 158.437L194.983 158.64C195.01 158.645 195.036 158.657 195.058 158.674C195.08 158.691 195.098 158.713 195.11 158.738C195.122 158.763 195.127 158.79 195.127 158.818C195.126 158.846 195.118 158.873 195.105 158.897L194.705 159.859C194.689 159.901 194.687 159.947 194.701 159.99C194.715 160.032 194.743 160.069 194.782 160.092C194.82 160.116 194.865 160.125 194.909 160.118C194.954 160.112 194.994 160.09 195.024 160.056L195.762 159.297C195.781 159.277 195.804 159.26 195.83 159.249C195.856 159.238 195.883 159.232 195.911 159.232C195.939 159.232 195.967 159.238 195.993 159.249C196.018 159.26 196.041 159.277 196.06 159.297L196.663 160.056C196.792 160.218 197.07 160.056 197.015 159.859L196.778 158.897C196.768 158.84 196.781 158.781 196.814 158.733C196.847 158.685 196.897 158.652 196.954 158.64L197.964 158.437C198.147 158.396 198.174 158.091 197.964 158.051Z" fill="#263238"/>
<path d="M204.372 158.051L203.397 157.847C203.369 157.842 203.344 157.83 203.322 157.813C203.3 157.797 203.282 157.775 203.27 157.75C203.257 157.725 203.251 157.698 203.25 157.67C203.25 157.643 203.256 157.615 203.268 157.59L203.674 156.628C203.691 156.587 203.693 156.54 203.679 156.498C203.665 156.455 203.636 156.419 203.598 156.395C203.56 156.372 203.515 156.362 203.47 156.369C203.426 156.376 203.385 156.398 203.356 156.432L202.617 157.19C202.6 157.213 202.577 157.231 202.551 157.244C202.525 157.256 202.497 157.263 202.468 157.263C202.44 157.263 202.411 157.256 202.386 157.244C202.36 157.231 202.337 157.213 202.319 157.19L201.717 156.432C201.588 156.269 201.31 156.432 201.364 156.628L201.601 157.59C201.607 157.619 201.607 157.648 201.602 157.677C201.596 157.705 201.584 157.732 201.568 157.756C201.552 157.78 201.53 157.801 201.506 157.816C201.481 157.832 201.454 157.843 201.425 157.847L200.416 158.051C200.199 158.091 200.172 158.396 200.382 158.437L201.358 158.64C201.385 158.646 201.41 158.657 201.432 158.674C201.454 158.691 201.472 158.713 201.485 158.737C201.497 158.762 201.503 158.79 201.504 158.817C201.504 158.845 201.498 158.872 201.486 158.897L201.08 159.859C201.063 159.901 201.061 159.947 201.075 159.99C201.089 160.032 201.118 160.069 201.156 160.092C201.194 160.116 201.239 160.125 201.284 160.118C201.328 160.112 201.369 160.09 201.398 160.056L202.137 159.297C202.156 159.277 202.179 159.26 202.204 159.249C202.23 159.238 202.258 159.232 202.286 159.232C202.314 159.232 202.341 159.238 202.367 159.249C202.393 159.26 202.416 159.277 202.435 159.297L203.037 160.056C203.166 160.218 203.444 160.056 203.397 159.859L203.159 158.897C203.153 158.869 203.153 158.84 203.158 158.812C203.164 158.784 203.175 158.757 203.19 158.733C203.206 158.709 203.226 158.689 203.25 158.673C203.274 158.657 203.301 158.646 203.329 158.64L204.338 158.437C204.575 158.396 204.575 158.091 204.372 158.051Z" fill="#263238"/>
<path d="M210.78 158.051L209.805 157.847C209.777 157.842 209.752 157.831 209.73 157.814C209.708 157.797 209.69 157.775 209.678 157.75C209.666 157.725 209.661 157.697 209.661 157.669C209.662 157.642 209.67 157.614 209.683 157.59L210.089 156.628C210.102 156.607 210.111 156.583 210.114 156.558C210.118 156.534 210.117 156.509 210.111 156.484C210.105 156.46 210.094 156.437 210.08 156.417C210.065 156.397 210.046 156.38 210.025 156.367C210.004 156.354 209.98 156.346 209.955 156.342C209.931 156.338 209.905 156.339 209.881 156.345C209.857 156.351 209.834 156.362 209.814 156.377C209.794 156.392 209.777 156.41 209.764 156.432L209.033 157.19C209.014 157.213 208.991 157.231 208.965 157.244C208.938 157.256 208.909 157.263 208.88 157.263C208.851 157.263 208.822 157.256 208.796 157.244C208.769 157.231 208.746 157.213 208.728 157.19L208.125 156.432C207.996 156.269 207.718 156.432 207.773 156.628L208.01 157.59C208.016 157.618 208.016 157.647 208.011 157.675C208.005 157.703 207.994 157.73 207.979 157.754C207.963 157.778 207.943 157.798 207.919 157.815C207.895 157.831 207.868 157.842 207.84 157.847L206.831 158.051C206.614 158.091 206.587 158.396 206.797 158.437L207.766 158.64C207.793 158.645 207.819 158.657 207.841 158.674C207.863 158.691 207.88 158.713 207.893 158.737C207.905 158.762 207.912 158.789 207.912 158.817C207.912 158.845 207.906 158.872 207.895 158.897L207.488 159.859C207.462 159.902 207.454 159.954 207.466 160.003C207.478 160.052 207.509 160.094 207.552 160.12C207.596 160.146 207.647 160.154 207.696 160.142C207.745 160.13 207.787 160.099 207.813 160.056L208.545 159.297C208.564 159.276 208.587 159.26 208.613 159.249C208.638 159.238 208.666 159.232 208.694 159.232C208.722 159.232 208.749 159.238 208.775 159.249C208.801 159.26 208.824 159.276 208.843 159.297L209.446 160.056C209.477 160.091 209.52 160.115 209.567 160.123C209.614 160.131 209.662 160.123 209.703 160.1C209.745 160.077 209.778 160.041 209.796 159.997C209.815 159.954 209.818 159.905 209.805 159.859L209.568 158.897C209.558 158.841 209.569 158.783 209.601 158.735C209.632 158.687 209.681 158.653 209.737 158.64L210.746 158.437C210.963 158.396 210.99 158.091 210.78 158.051Z" fill="#263238"/>
<path d="M195.329 144.021H183.298C182.929 144.028 182.575 144.169 182.303 144.419C182.031 144.668 181.859 145.009 181.821 145.376C181.802 145.549 181.82 145.724 181.874 145.889C181.928 146.055 182.016 146.207 182.134 146.335C182.251 146.463 182.394 146.565 182.554 146.633C182.714 146.702 182.887 146.735 183.061 146.731H195.092C195.461 146.725 195.815 146.583 196.087 146.334C196.359 146.084 196.53 145.743 196.568 145.376C196.587 145.204 196.568 145.029 196.514 144.864C196.46 144.699 196.371 144.548 196.254 144.42C196.136 144.292 195.993 144.19 195.834 144.121C195.675 144.053 195.502 144.019 195.329 144.021Z" fill="#263238"/>
<path d="M207.549 144.022H200.565C200.197 144.028 199.843 144.17 199.572 144.419C199.301 144.669 199.132 145.01 199.095 145.376C199.076 145.549 199.094 145.723 199.147 145.888C199.2 146.053 199.288 146.205 199.405 146.333C199.522 146.461 199.664 146.563 199.824 146.632C199.983 146.7 200.155 146.734 200.328 146.731H207.285C207.653 146.725 208.007 146.583 208.278 146.333C208.549 146.084 208.718 145.743 208.755 145.376C208.774 145.206 208.757 145.034 208.705 144.871C208.653 144.708 208.568 144.558 208.454 144.43C208.34 144.303 208.201 144.2 208.045 144.13C207.889 144.059 207.72 144.023 207.549 144.022Z" fill="#263238"/>
<path d="M216.768 205.428C212.516 207.048 208.677 209.593 205.53 212.879C203.619 211.396 201.341 210.459 198.939 210.17L198.621 210.122L198.485 211.721L198.662 211.789C201.296 212.759 203.524 214.592 204.982 216.991L205.212 217.37L205.463 216.964C208.268 212.486 212.227 208.845 216.924 206.424L217.08 206.342L217.168 205.286L216.768 205.428Z" fill="#263238"/>
<path d="M155.492 96.5939C157.226 98.4839 158.879 100.442 160.525 102.413C162.171 104.384 163.763 106.396 165.348 108.415C165.416 108.503 165.388 108.469 165.402 108.496C165.416 108.523 165.402 108.53 165.402 108.536C165.414 108.562 165.43 108.585 165.449 108.604C165.507 108.686 165.581 108.756 165.665 108.81C165.75 108.863 165.845 108.899 165.944 108.916C166.02 108.926 166.098 108.926 166.174 108.916C166.215 108.919 166.256 108.919 166.296 108.916H166.357C166.391 108.916 166.357 108.916 166.465 108.875L168.159 107.954C170.435 106.748 172.731 105.569 175.102 104.513L177.087 106.972C175.177 108.726 173.185 110.928 171.173 112.54L169.656 113.732C169.562 113.809 169.462 113.879 169.358 113.942C169.243 114.024 169.123 114.099 168.999 114.166C168.754 114.307 168.5 114.434 168.24 114.545C167.715 114.766 167.165 114.918 166.601 114.999C165.461 115.166 164.298 115.05 163.214 114.66C162.663 114.464 162.139 114.198 161.656 113.868C161.412 113.705 161.182 113.515 160.979 113.332C160.863 113.238 160.769 113.129 160.66 113.028L160.389 112.757C158.594 110.914 156.826 109.058 155.092 107.168C153.358 105.278 151.644 103.375 150.005 101.397L155.492 96.5939Z" fill="#B55B52"/>
<path d="M174.208 106.003L175.787 100.929L179.946 103.002C179.946 103.002 179.336 106.7 176.315 107.344L174.208 106.003Z" fill="#B55B52"/>
<path d="M177.446 99.5267L181.199 100.556L179.939 103.002L175.78 100.929L177.446 99.5267Z" fill="#B55B52"/>
<path d="M133.625 97.9751C133.178 100.129 132.623 102.263 132.047 104.39C131.471 106.517 130.841 108.624 130.184 110.731L129.94 111.523L129.818 111.916C129.802 111.973 129.779 112.027 129.75 112.079C129.673 112.297 129.63 112.525 129.622 112.756C129.607 113.248 129.744 113.733 130.015 114.145C130.148 114.325 130.295 114.495 130.455 114.653L131.017 115.269L132.128 116.509C132.853 117.349 133.584 118.189 134.275 119.069L131.911 121.779C130.936 121.224 130.001 120.621 129.066 120.025L127.678 119.103L127 118.636C126.77 118.473 126.58 118.365 126.208 118.06C124.882 116.931 123.968 115.394 123.606 113.691C123.425 112.822 123.381 111.931 123.478 111.049C123.478 110.832 123.545 110.588 123.579 110.372L123.654 109.965L123.796 109.152C124.175 106.978 124.582 104.81 125.036 102.656C125.49 100.502 125.977 98.3545 126.553 96.2342L133.625 97.9751Z" fill="#B55B52"/>
<path d="M131.959 118.853L134.75 117.423L135.983 122.165C135.983 122.165 133.74 123.026 132.006 121.921L131.959 118.853Z" fill="#B55B52"/>
<path d="M138.611 115.899L138.74 120.262L135.617 122.301L134.533 117.511L138.611 115.899Z" fill="#B55B52"/>
<path d="M147.749 75.5807C147.817 75.9126 148.054 76.1497 148.271 76.1091C148.487 76.0684 148.616 75.7568 148.548 75.4317C148.481 75.1065 148.243 74.8626 148.027 74.9033C147.81 74.9439 147.681 75.2623 147.749 75.5807Z" fill="#263238"/>
<path d="M148.02 76.1564C148.63 77.1012 149.366 77.9581 150.208 78.7034C150.012 78.9146 149.772 79.0804 149.505 79.1892C149.238 79.298 148.951 79.3472 148.663 79.3334L148.02 76.1564Z" fill="#A02724"/>
<path d="M146.144 73.9683C146.105 73.9678 146.066 73.9561 146.034 73.9346C146.001 73.9131 145.976 73.8826 145.96 73.8469C145.944 73.8112 145.939 73.7717 145.945 73.7331C145.951 73.6946 145.968 73.6586 145.995 73.6296C146.207 73.3896 146.472 73.2031 146.77 73.0854C147.068 72.9677 147.39 72.922 147.708 72.9522C147.735 72.957 147.76 72.967 147.782 72.9816C147.804 72.9962 147.824 73.015 147.839 73.037C147.854 73.059 147.864 73.0838 147.87 73.1099C147.875 73.136 147.876 73.163 147.871 73.1892C147.867 73.2152 147.858 73.2401 147.844 73.2624C147.83 73.2848 147.812 73.3041 147.79 73.3192C147.769 73.3344 147.744 73.3451 147.719 73.3507C147.693 73.3563 147.666 73.3567 147.641 73.3518C147.388 73.3276 147.133 73.3641 146.897 73.4584C146.662 73.5527 146.452 73.7019 146.286 73.8937C146.25 73.9359 146.199 73.9625 146.144 73.9683Z" fill="#263238"/>
<path d="M137.981 80.3022C138.726 83.4115 139.478 89.1084 136.809 91.1745C136.809 91.1745 137.852 94.3312 144.938 94.3312C152.728 94.3312 148.664 92.299 148.664 92.299C144.409 91.4725 144.518 87.7807 145.277 85.3624L137.981 80.3022Z" fill="#B55B52"/>
<path d="M135.976 91.7504C135.515 90.8901 135 89.9011 136.057 89.5895C137.222 89.2508 144.694 88.6208 146.895 89.2576C146.218 90.4566 147.363 91.9672 147.363 91.9672L135.976 91.7504Z" fill="#263238"/>
<path d="M142.167 237.107H147.051L147.539 227.271H142.648L142.167 237.107Z" fill="#B55B52"/>
<path d="M111.149 235.752L116.101 236.016L119.108 226.323L114.157 226.058L111.149 235.752Z" fill="#B55B52"/>
<path d="M115.952 235.623L111.284 234.614C111.203 234.595 111.117 234.605 111.042 234.642C110.967 234.679 110.906 234.741 110.871 234.817L109.252 238.333C109.212 238.418 109.193 238.512 109.194 238.606C109.196 238.7 109.22 238.792 109.263 238.876C109.306 238.96 109.368 239.033 109.443 239.089C109.519 239.145 109.607 239.183 109.699 239.2C111.332 239.525 112.145 239.6 114.197 240.047C115.457 240.318 118.309 241.015 120.05 241.402C121.791 241.788 122.394 240.108 121.716 239.796C118.668 238.407 117.395 237.181 116.568 236.036C116.42 235.828 116.201 235.681 115.952 235.623Z" fill="#263238"/>
<path d="M146.794 236.612H142.154C142.07 236.613 141.989 236.642 141.924 236.695C141.858 236.748 141.813 236.821 141.795 236.903L140.955 240.676C140.933 240.768 140.933 240.863 140.953 240.954C140.974 241.046 141.015 241.132 141.074 241.205C141.133 241.278 141.208 241.337 141.293 241.377C141.378 241.417 141.471 241.437 141.564 241.435C143.238 241.435 145.629 241.306 147.763 241.306C150.222 241.306 152.342 241.442 155.214 241.442C156.955 241.442 157.443 239.681 156.711 239.518C153.385 238.793 150.675 238.712 147.803 236.944C147.503 236.744 147.154 236.629 146.794 236.612Z" fill="#263238"/>
<path d="M127.955 92.6105C124.27 94.365 123.268 105 123.268 105L132.392 109.214C133.935 106.612 134.775 103.655 134.831 100.631C135.014 95.1372 131.728 90.8425 127.955 92.6105Z" fill="#263238"/>
<path opacity="0.4" d="M132.887 99.1678C131.241 101.728 131.397 105.684 131.966 109.024L132.372 109.214C133.913 106.612 134.753 103.655 134.811 100.631C134.811 100.306 134.811 99.9536 134.811 99.6623L132.887 99.1678Z" fill="black"/>
<path d="M153.419 92.353C153.419 92.353 157.944 97.4606 153.669 129.068H130.956C130.8 125.58 132.988 108.57 129.601 92.1362C132.112 91.6534 134.65 91.3321 137.202 91.1743C140.419 90.9913 143.644 90.9913 146.862 91.1743C149.074 91.3985 151.266 91.7925 153.419 92.353Z" fill="#407BFF"/>
<path opacity="0.6" d="M153.419 92.353C153.419 92.353 157.944 97.4606 153.669 129.068H130.956C130.8 125.58 132.988 108.57 129.601 92.1362C132.112 91.6534 134.65 91.3321 137.202 91.1743C140.419 90.9913 143.644 90.9913 146.862 91.1743C149.074 91.3985 151.266 91.7925 153.419 92.353Z" fill="#FAFAFA"/>
<path opacity="0.2" d="M155.404 102.013L155.322 101.938L150.804 99.5267C150.343 106.484 153.453 110.846 155.302 112.75C155.534 109.175 155.568 105.591 155.404 102.013Z" fill="black"/>
<path opacity="0.2" d="M147.539 227.271L147.288 232.344H142.398L142.648 227.271H147.539Z" fill="black"/>
<path opacity="0.2" d="M114.157 226.065L119.108 226.322L117.557 231.322L112.605 231.057L114.157 226.065Z" fill="black"/>
<path d="M136.409 77.1454C137.5 81.2098 137.933 83.6552 140.474 85.3487C144.254 87.8957 148.955 84.9693 149.104 80.6543C149.233 76.7728 147.431 70.7642 143.061 69.9446C142.097 69.7537 141.099 69.8134 140.164 70.1179C139.229 70.4224 138.388 70.9615 137.721 71.6838C137.053 72.4061 136.582 73.2875 136.353 74.2436C136.123 75.1998 136.143 76.1988 136.409 77.1454Z" fill="#B55B52"/>
<path d="M145.615 129.068C145.615 129.068 140.792 161.523 138.164 173.689C135.251 187.034 119.711 231.065 119.711 231.065L112.104 229.418C112.104 229.418 121.852 193.516 124.297 174.901C125.246 167.633 126.391 155.934 127.84 146.159C129.242 136.676 130.97 129.075 130.97 129.075L145.615 129.068Z" fill="#263238"/>
<path d="M121.534 228.524L120.111 231.274L111.562 229.418L112.28 226.85L121.534 228.524Z" fill="#407BFF"/>
<path opacity="0.6" d="M121.534 228.524L120.111 231.274L111.562 229.418L112.28 226.85L121.534 228.524Z" fill="white"/>
<path opacity="0.6" d="M142.567 140.631C136.992 141.722 137.581 162.511 138.252 173.201C139.864 165.641 142.215 151.104 143.82 140.78C143.431 140.589 142.989 140.536 142.567 140.631Z" fill="black"/>
<path d="M153.669 129.068C153.669 129.068 155.939 160.825 155.478 173.777C154.997 187.25 148.609 231.356 148.609 231.356H141.415C141.415 231.356 141.151 188.002 140.833 174.8C140.48 160.371 138.74 129.061 138.74 129.061L153.669 129.068Z" fill="#263238"/>
<path d="M149.991 228.497C150.025 228.497 149.585 231.484 149.585 231.484H140.833L140.596 228.815L149.991 228.497Z" fill="#407BFF"/>
<path opacity="0.6" d="M149.991 228.497C150.025 228.497 149.585 231.484 149.585 231.484H140.833L140.596 228.815L149.991 228.497Z" fill="white"/>
<path d="M150.77 98.2936C150.77 106.815 155.302 110.324 155.302 110.324L162.692 103.13C160.943 100.207 158.951 97.4355 156.738 94.8456C152.464 89.948 150.77 92.8202 150.77 98.2936Z" fill="#263238"/>
<path opacity="0.2" d="M148.819 82.1988C148.669 82.6258 148.416 83.0096 148.083 83.3165C147.75 83.6235 147.347 83.8444 146.909 83.96C146.427 84.0582 145.99 84.3089 145.662 84.6749C145.334 85.0409 145.132 85.5027 145.087 85.9922C145.964 85.6989 146.759 85.2023 147.408 84.5431C148.057 83.8838 148.54 83.0805 148.819 82.1988Z" fill="black"/>
<path d="M146.909 69.0506C148.426 67.1336 146.089 67.0184 146.089 67.0184C146.699 64.7356 143.962 65.9617 143.962 65.9617C142.323 63.6991 141.395 66.4562 141.395 66.4562C139.695 64.5391 139.363 67.6687 139.363 67.6687C137.656 65.2368 136.789 68.7458 136.789 68.7458C135.217 66.2191 134.255 69.5045 134.255 69.5045C131.01 68.3461 132.548 71.7196 132.548 71.7196C129.784 71.7941 132.006 73.9414 132.006 73.9414C128.687 73.9414 131.613 75.8449 131.613 75.8449C128.978 77.5723 132.291 78.0397 132.291 78.0397C130.143 81.4267 133.835 80.1532 133.835 80.1532C132.338 83.486 135.651 82.016 135.651 82.016C135.441 85.2269 137.29 84.3531 138.184 83.757C138.353 84.4344 138.678 85.1118 139.275 85.166C140.433 85.3218 140.629 83.1338 140.629 83.1338C140.629 83.1338 141.7 83.9737 142.601 83.5199C143.502 83.066 143.163 81.9212 143.163 81.9212C143.358 82.0674 143.596 82.1465 143.84 82.1465C144.084 82.1465 144.322 82.0674 144.518 81.9212C144.904 81.6232 144.904 79.469 144.416 78.7103L146.177 78.0329C146.177 78.0329 147.485 77.85 146.902 76.1227C146.551 75.1299 146.52 74.0517 146.814 73.0405C148.806 72.1057 147.166 71.0083 147.166 71.0083C149.476 69.5248 146.909 69.0506 146.909 69.0506Z" fill="#263238"/>
<path d="M143.339 77.2941C143.615 78.3048 144.217 79.1956 145.053 79.8276C146.157 80.654 146.983 79.8276 146.902 78.588C146.834 77.4635 146.17 75.6819 144.951 75.3432C143.732 75.0045 143.048 76.0951 143.339 77.2941Z" fill="#B55B52"/>
</svg>
